<?xml version="1.0" encoding="utf-8"?>
<!-- Generator: Adobe Illustrator 15.0.0, SVG Export Plug-In . SVG Version: 6.00 Build 0)  -->
<!DOCTYPE svg PUBLIC "-//W3C//DTD SVG 1.1//EN" "http://www.w3.org/Graphics/SVG/1.1/DTD/svg11.dtd">
<svg version="1.1" id="Camada_1" xmlns="http://www.w3.org/2000/svg" xmlns:xlink="http://www.w3.org/1999/xlink" x="0px" y="0px"
	 width="289.434px" height="289.426px" viewBox="0 0 289.434 289.426" enable-background="new 0 0 289.434 289.426"
	 xml:space="preserve">
<g>
	<g>
		<g>
			<defs>
				<path id="SVGID_1_" d="M257.468,98.424c-1.915,12.098-6.974,23.861-15.308,34.012l-0.02,0.019
					c-3.328,4.05-6.989,7.63-10.938,10.737v0.017c-24.706,19.528-60.063,20.72-86.194,1.614c-0.032-0.018-0.05-0.033-0.065-0.053
					c-0.017-0.016-0.034-0.033-0.053-0.033c-0.016-0.017-0.031-0.031-0.047-0.031c-0.019-0.018-0.034-0.034-0.034-0.034
					c-0.031-0.019-0.067-0.051-0.086-0.067c-0.015,0-0.015,0-0.015-0.02c-0.018,0-0.018,0-0.034-0.03h-0.035
					c-0.015-0.018-0.03-0.035-0.05-0.05c-0.032-0.019-0.052-0.033-0.084-0.07c-0.219-0.15-0.438-0.318-0.656-0.502
					c0.219,0.15,0.424,0.3,0.642,0.437c0.032,0.033,0.047,0.05,0.082,0.065c0.036,0.019,0.066,0.052,0.102,0.07
					c0.017,0.015,0.034,0.032,0.049,0.032h0.019c0.016,0.031,0.036,0.031,0.049,0.048h0.034c0.019,0.036,0.034,0.053,0.05,0.053
					c0,0.016,0.016,0.016,0.016,0.016c0.019,0.019,0.036,0.019,0.053,0.035c0.033,0.032,0.065,0.049,0.1,0.066
					c0.018,0.016,0.053,0.035,0.069,0.051c18.637,12.602,44.163,9.158,58.73-8.589c13.965-17.003,13.042-41.354-1.192-57.27
					c-1.478-1.679-3.125-3.261-4.925-4.741l0.019-0.029c-7.192-5.896-10.573-14.721-9.849-23.325
					c0.384-4.572,1.932-9.093,4.671-13.073c0.438-0.639,0.909-1.244,1.395-1.848c9.53-11.615,26.654-13.311,38.267-3.783
					l0.031-0.033C252.544,48.749,261.281,74.258,257.468,98.424z"/>
			</defs>
			<clipPath id="SVGID_2_">
				<use xlink:href="#SVGID_1_"  overflow="visible"/>
			</clipPath>
			<rect x="143.852" y="22.621" clip-path="url(#SVGID_2_)" fill="#6B2D76" width="117.43" height="141.305"/>
			<path clip-path="url(#SVGID_2_)" fill="#6B2D76" d="M244.27,109.895c0,34.074-27.621,61.695-61.691,61.695
				c-17.039,0-32.461-6.906-43.625-18.07h3.898V66.27h-3.898c11.164-11.164,26.586-18.07,43.625-18.07
				C216.648,48.199,244.27,75.82,244.27,109.895z"/>
			<path clip-path="url(#SVGID_2_)" fill="#6C2D76" d="M243.508,109.895c0,33.652-27.281,60.934-60.93,60.934
				c-16.828,0-32.063-6.82-43.086-17.848h3.359V66.809h-3.359c11.023-11.027,26.258-17.848,43.086-17.848
				C216.227,48.961,243.508,76.242,243.508,109.895z"/>
			<path clip-path="url(#SVGID_2_)" fill="#6D2D76" d="M242.746,109.895c0,33.23-26.938,60.172-60.168,60.172
				c-16.617,0-31.66-6.734-42.547-17.625h2.82V67.348h-2.82c10.887-10.891,25.93-17.625,42.547-17.625
				C215.809,49.723,242.746,76.664,242.746,109.895z"/>
			<path clip-path="url(#SVGID_2_)" fill="#6E2D76" d="M241.984,109.895c0,32.813-26.598,59.41-59.406,59.41
				c-16.406,0-31.258-6.652-42.012-17.402h2.285V67.887h-2.285c10.754-10.75,25.605-17.402,42.012-17.402
				C215.387,50.484,241.984,77.082,241.984,109.895z"/>
			<path clip-path="url(#SVGID_2_)" fill="#6F2D77" d="M241.223,109.895c0,32.391-26.254,58.648-58.645,58.648
				c-16.195,0-30.859-6.563-41.473-17.18h1.746V68.426h-1.746c10.613-10.617,25.277-17.18,41.473-17.18
				C214.969,51.246,241.223,77.504,241.223,109.895z"/>
			<path clip-path="url(#SVGID_2_)" fill="#702F77" d="M240.461,109.895c0,31.969-25.914,57.887-57.883,57.887
				c-15.984,0-30.457-6.48-40.934-16.957h1.207V68.965h-1.207c10.477-10.477,24.949-16.957,40.934-16.957
				C214.547,52.008,240.461,77.926,240.461,109.895z"/>
			<path clip-path="url(#SVGID_2_)" fill="#702F77" d="M239.699,109.895c0,31.547-25.574,57.125-57.121,57.125
				c-15.777,0-30.055-6.395-40.395-16.734h0.668V69.504h-0.668c10.34-10.34,24.617-16.734,40.395-16.734
				C214.125,52.77,239.699,78.348,239.699,109.895z"/>
			<path clip-path="url(#SVGID_2_)" fill="#722F77" d="M238.938,109.895c0,31.129-25.234,56.363-56.359,56.363
				c-15.566,0-29.656-6.309-39.855-16.512h0.129V70.043h-0.129c10.199-10.203,24.289-16.512,39.855-16.512
				C213.703,53.531,238.938,78.766,238.938,109.895z"/>
			<path clip-path="url(#SVGID_2_)" fill="#722F77" d="M238.176,109.895c0,30.707-24.891,55.602-55.598,55.602
				c-15.355,0-29.258-6.227-39.316-16.285c-2.516-2.516-4.793-5.27-6.789-8.23h6.379V78.809h-6.379
				c1.996-2.961,4.273-5.715,6.789-8.23c10.059-10.059,23.961-16.285,39.316-16.285C213.285,54.293,238.176,79.188,238.176,109.895z
				"/>
			<path clip-path="url(#SVGID_2_)" fill="#732F77" d="M237.414,109.895c0,30.289-24.551,54.84-54.836,54.84
				c-15.145,0-28.855-6.137-38.781-16.063c-2.477-2.48-4.723-5.199-6.695-8.113h5.75V79.23h-5.75
				c1.973-2.914,4.219-5.633,6.695-8.113c9.926-9.926,23.637-16.063,38.781-16.063C212.863,55.055,237.414,79.605,237.414,109.895z"
				/>
			<path clip-path="url(#SVGID_2_)" fill="#742F77" d="M236.656,109.895c0,29.867-24.215,54.078-54.078,54.078
				c-14.938,0-28.453-6.055-38.242-15.84c-2.445-2.445-4.656-5.125-6.602-8.004h5.117V79.66h-5.117
				c1.945-2.879,4.156-5.559,6.602-8.004c9.789-9.785,23.305-15.84,38.242-15.84C212.441,55.816,236.656,80.027,236.656,109.895z"/>
			<path clip-path="url(#SVGID_2_)" fill="#752F77" d="M235.891,109.895c0,29.445-23.867,53.316-53.313,53.316
				c-14.727,0-28.055-5.969-37.703-15.617c-2.41-2.41-4.594-5.051-6.508-7.891h4.484V80.086h-4.484
				c1.914-2.84,4.098-5.48,6.508-7.891c9.648-9.648,22.977-15.617,37.703-15.617C212.023,56.578,235.891,80.449,235.891,109.895z"/>
			<path clip-path="url(#SVGID_2_)" fill="#763078" d="M235.133,109.895c0,29.023-23.531,52.555-52.555,52.555
				c-14.516,0-27.652-5.883-37.164-15.391c-2.375-2.379-4.527-4.984-6.418-7.781h3.855V80.512h-3.855
				c1.891-2.797,4.043-5.402,6.418-7.781c9.512-9.508,22.648-15.391,37.164-15.391C211.602,57.34,235.133,80.871,235.133,109.895z"
				/>
			<path clip-path="url(#SVGID_2_)" fill="#773078" d="M234.367,109.895c0,28.605-23.188,51.793-51.789,51.793
				c-14.305,0-27.254-5.797-36.625-15.168c-2.344-2.344-4.461-4.91-6.324-7.664h3.223V80.934h-3.223
				c1.863-2.754,3.98-5.32,6.324-7.664c9.371-9.371,22.32-15.168,36.625-15.168C211.18,58.102,234.367,81.289,234.367,109.895z"/>
			<path clip-path="url(#SVGID_2_)" fill="#773078" d="M233.609,109.895c0,28.184-22.852,51.031-51.031,51.031
				c-14.094,0-26.852-5.711-36.086-14.945c-2.309-2.313-4.398-4.84-6.234-7.555h2.594V81.363h-2.594
				c1.836-2.715,3.926-5.242,6.234-7.555c9.234-9.234,21.992-14.945,36.086-14.945C210.758,58.863,233.609,81.711,233.609,109.895z"
				/>
			<path clip-path="url(#SVGID_2_)" fill="#783077" d="M232.844,109.895c0,27.762-22.504,50.27-50.266,50.27
				c-13.883,0-26.449-5.629-35.547-14.723c-4.547-4.551-8.23-9.969-10.773-15.98h6.594V90.328h-6.594
				c2.543-6.012,6.227-11.43,10.773-15.98c9.098-9.094,21.664-14.723,35.547-14.723C210.34,59.625,232.844,82.133,232.844,109.895z"
				/>
			<path clip-path="url(#SVGID_2_)" fill="#793077" d="M232.086,109.895c0,27.344-22.168,49.508-49.508,49.508
				c-13.672,0-26.051-5.539-35.008-14.5c-4.48-4.48-8.105-9.813-10.609-15.734h5.891V90.621h-5.891
				c2.504-5.922,6.129-11.254,10.609-15.734c8.957-8.961,21.336-14.5,35.008-14.5C209.918,60.387,232.086,82.551,232.086,109.895z"
				/>
			<path clip-path="url(#SVGID_2_)" fill="#793077" d="M231.32,109.895c0,26.922-21.82,48.746-48.742,48.746
				c-13.461,0-25.648-5.457-34.469-14.277c-4.414-4.41-7.98-9.664-10.449-15.492h5.191V90.918h-5.191
				c2.469-5.828,6.035-11.082,10.449-15.492c8.82-8.82,21.008-14.277,34.469-14.277C209.5,61.148,231.32,82.973,231.32,109.895z"/>
			<path clip-path="url(#SVGID_2_)" fill="#793077" d="M230.563,109.895c0,26.5-21.484,47.984-47.984,47.984
				c-13.25,0-25.25-5.371-33.93-14.055c-4.344-4.344-7.859-9.512-10.285-15.25h4.488V91.215h-4.488
				c2.426-5.738,5.941-10.906,10.285-15.25c8.68-8.684,20.68-14.055,33.93-14.055C209.078,61.91,230.563,83.395,230.563,109.895z"/>
			<path clip-path="url(#SVGID_2_)" fill="#793077" d="M229.797,109.895c0,26.078-21.141,47.223-47.219,47.223
				c-13.043,0-24.848-5.285-33.395-13.832c-4.27-4.273-7.73-9.359-10.121-15.008h3.789V91.512h-3.789
				c2.391-5.648,5.852-10.734,10.121-15.008c8.547-8.547,20.352-13.832,33.395-13.832
				C208.656,62.672,229.797,83.816,229.797,109.895z"/>
			<path clip-path="url(#SVGID_2_)" fill="#7A3078" d="M229.039,109.895c0,25.66-20.805,46.461-46.461,46.461
				c-25.664,0-46.461-20.801-46.461-46.461s20.797-46.461,46.461-46.461C208.234,63.434,229.039,84.234,229.039,109.895z"/>
			<path clip-path="url(#SVGID_2_)" fill="#7B3078" d="M228.273,109.895c0,25.238-20.457,45.699-45.695,45.699
				c-25.242,0-45.703-20.461-45.703-45.699s20.461-45.699,45.703-45.699C207.816,64.195,228.273,84.656,228.273,109.895z"/>
			<circle clip-path="url(#SVGID_2_)" fill="#7C3078" cx="182.578" cy="109.895" r="44.938"/>
			<path clip-path="url(#SVGID_2_)" fill="#7D3078" d="M226.75,109.895c0,24.398-19.777,44.176-44.172,44.176
				c-24.398,0-44.18-19.777-44.18-44.176s19.781-44.176,44.18-44.176C206.973,65.719,226.75,85.496,226.75,109.895z"/>
			<path clip-path="url(#SVGID_2_)" fill="#7E3078" d="M225.992,109.895c0,23.977-19.438,43.414-43.414,43.414
				c-23.98,0-43.414-19.438-43.414-43.414s19.434-43.414,43.414-43.414C206.555,66.48,225.992,85.918,225.992,109.895z"/>
			<circle clip-path="url(#SVGID_2_)" fill="#7F3278" cx="182.576" cy="109.895" r="42.654"/>
			<path clip-path="url(#SVGID_2_)" fill="#803278" d="M224.469,109.895c0,23.137-18.758,41.891-41.891,41.891
				c-23.137,0-41.895-18.754-41.895-41.891s18.758-41.891,41.895-41.891C205.711,68.004,224.469,86.758,224.469,109.895z"/>
			<path clip-path="url(#SVGID_2_)" fill="#813278" d="M223.707,109.895c0,22.715-18.418,41.129-41.129,41.129
				c-22.719,0-41.133-18.414-41.133-41.129s18.414-41.129,41.133-41.129C205.289,68.766,223.707,87.18,223.707,109.895z"/>
			<circle clip-path="url(#SVGID_2_)" fill="#813279" cx="182.576" cy="109.895" r="40.369"/>
			<path clip-path="url(#SVGID_2_)" fill="#833279" d="M222.184,109.895c0,21.875-17.734,39.605-39.605,39.605
				c-21.875,0-39.609-17.73-39.609-39.605s17.734-39.605,39.609-39.605C204.449,70.289,222.184,88.02,222.184,109.895z"/>
			<circle clip-path="url(#SVGID_2_)" fill="#833279" cx="182.576" cy="109.895" r="38.846"/>
			<circle clip-path="url(#SVGID_2_)" fill="#843279" cx="182.576" cy="109.895" r="38.084"/>
			<path clip-path="url(#SVGID_2_)" fill="#853279" d="M219.898,109.895c0,20.613-16.711,37.32-37.32,37.32
				c-20.613,0-37.324-16.707-37.324-37.32s16.711-37.32,37.324-37.32C203.188,72.574,219.898,89.281,219.898,109.895z"/>
			<path clip-path="url(#SVGID_2_)" fill="#863279" d="M219.137,109.895c0,20.191-16.371,36.559-36.559,36.559
				c-20.195,0-36.563-16.367-36.563-36.559s16.367-36.559,36.563-36.559C202.766,73.336,219.137,89.703,219.137,109.895z"/>
			<circle clip-path="url(#SVGID_2_)" fill="#873279" cx="182.576" cy="109.895" r="35.799"/>
			<path clip-path="url(#SVGID_2_)" fill="#883379" d="M217.613,109.895c0,19.352-15.688,35.035-35.035,35.035
				c-19.352,0-35.039-15.684-35.039-35.035s15.688-35.035,35.039-35.035C201.926,74.859,217.613,90.543,217.613,109.895z"/>
			<circle clip-path="url(#SVGID_2_)" fill="#893379" cx="182.576" cy="109.895" r="34.275"/>
			<circle clip-path="url(#SVGID_2_)" fill="#8A3379" cx="182.576" cy="109.895" r="33.514"/>
			<circle clip-path="url(#SVGID_2_)" fill="#8A3379" cx="182.576" cy="109.895" r="32.752"/>
			<path clip-path="url(#SVGID_2_)" fill="#8B3379" d="M214.566,109.895c0,17.668-14.324,31.988-31.988,31.988
				c-17.668,0-31.992-14.32-31.992-31.988s14.324-31.988,31.992-31.988C200.242,77.906,214.566,92.227,214.566,109.895z"/>
			<path clip-path="url(#SVGID_2_)" fill="#8D3379" d="M213.805,109.895c0,17.246-13.98,31.227-31.227,31.227
				c-17.25,0-31.23-13.98-31.23-31.227s13.98-31.227,31.23-31.227C199.824,78.668,213.805,92.648,213.805,109.895z"/>
			<circle clip-path="url(#SVGID_2_)" fill="#8E3379" cx="182.576" cy="109.895" r="30.467"/>
			<path clip-path="url(#SVGID_2_)" fill="#8F3379" d="M212.281,109.895c0,16.406-13.301,29.703-29.703,29.703
				c-16.406,0-29.707-13.297-29.707-29.703s13.301-29.703,29.707-29.703C198.98,80.191,212.281,93.488,212.281,109.895z"/>
			<circle clip-path="url(#SVGID_2_)" fill="#903379" cx="182.576" cy="109.895" r="28.943"/>
			<circle clip-path="url(#SVGID_2_)" fill="#913379" cx="182.576" cy="109.895" r="28.182"/>
			<path clip-path="url(#SVGID_2_)" fill="#923379" d="M209.996,109.895c0,15.145-12.277,27.422-27.418,27.422
				c-15.145,0-27.422-12.277-27.422-27.422s12.277-27.422,27.422-27.422C197.719,82.473,209.996,94.75,209.996,109.895z"/>
			<path clip-path="url(#SVGID_2_)" fill="#923379" d="M209.234,109.895c0,14.723-11.938,26.656-26.656,26.656
				c-14.727,0-26.66-11.934-26.66-26.656s11.934-26.656,26.66-26.656C197.297,83.238,209.234,95.172,209.234,109.895z"/>
			<circle clip-path="url(#SVGID_2_)" fill="#933378" cx="182.576" cy="109.895" r="25.896"/>
			<circle clip-path="url(#SVGID_2_)" fill="#953378" cx="182.576" cy="109.895" r="25.135"/>
			<circle clip-path="url(#SVGID_2_)" fill="#953378" cx="182.576" cy="109.895" r="24.373"/>
			<path clip-path="url(#SVGID_2_)" fill="#963378" d="M206.188,109.895c0,13.039-10.57,23.609-23.609,23.609
				c-13.043,0-23.613-10.57-23.613-23.609s10.57-23.609,23.613-23.609C195.617,86.285,206.188,96.855,206.188,109.895z"/>
			<path clip-path="url(#SVGID_2_)" fill="#973579" d="M205.426,109.895c0,12.617-10.23,22.852-22.848,22.852
				c-12.621,0-22.852-10.234-22.852-22.852s10.23-22.852,22.852-22.852C195.195,87.043,205.426,97.277,205.426,109.895z"/>
			<path clip-path="url(#SVGID_2_)" fill="#983579" d="M204.664,109.895c0,12.199-9.891,22.086-22.086,22.086
				c-12.203,0-22.09-9.887-22.09-22.086s9.887-22.086,22.09-22.086C194.773,87.809,204.664,97.695,204.664,109.895z"/>
			<path clip-path="url(#SVGID_2_)" fill="#993579" d="M203.902,109.895c0,11.777-9.547,21.328-21.324,21.328
				c-11.781,0-21.328-9.551-21.328-21.328s9.547-21.328,21.328-21.328C194.355,88.566,203.902,98.117,203.902,109.895z"/>
			<path clip-path="url(#SVGID_2_)" fill="#9A3579" d="M203.141,109.895c0,11.359-9.207,20.563-20.563,20.563
				c-11.359,0-20.566-9.203-20.566-20.563s9.207-20.563,20.566-20.563C193.934,89.332,203.141,98.535,203.141,109.895z"/>
			<path clip-path="url(#SVGID_2_)" fill="#9A3579" d="M202.379,109.895c0,10.938-8.867,19.805-19.801,19.805
				c-10.938,0-19.805-8.867-19.805-19.805s8.867-19.805,19.805-19.805C193.512,90.09,202.379,98.957,202.379,109.895z"/>
			<path clip-path="url(#SVGID_2_)" fill="#9C3579" d="M201.617,109.895c0,10.516-8.523,19.039-19.039,19.039
				c-10.52,0-19.043-8.523-19.043-19.039s8.523-19.039,19.043-19.039C193.094,90.855,201.617,99.379,201.617,109.895z"/>
			<circle clip-path="url(#SVGID_2_)" fill="#9C3578" cx="182.576" cy="109.895" r="18.279"/>
			<path clip-path="url(#SVGID_2_)" fill="#9D3579" d="M200.094,109.895c0,9.676-7.844,17.52-17.516,17.52
				c-9.676,0-17.52-7.844-17.52-17.52s7.844-17.52,17.52-17.52C192.25,92.375,200.094,100.219,200.094,109.895z"/>
			<path clip-path="url(#SVGID_2_)" fill="#9E3579" d="M199.332,109.895c0,9.254-7.504,16.758-16.754,16.758
				c-9.258,0-16.758-7.504-16.758-16.758s7.5-16.758,16.758-16.758C191.828,93.137,199.332,100.641,199.332,109.895z"/>
			<circle clip-path="url(#SVGID_2_)" fill="#9F3579" cx="182.576" cy="109.895" r="15.994"/>
			<circle clip-path="url(#SVGID_2_)" fill="#A03579" cx="182.576" cy="109.895" r="15.232"/>
			<circle clip-path="url(#SVGID_2_)" fill="#A1377A" cx="182.576" cy="109.895" r="14.471"/>
			<path clip-path="url(#SVGID_2_)" fill="#A2377A" d="M196.285,109.895c0,7.57-6.137,13.711-13.707,13.711
				c-7.574,0-13.711-6.141-13.711-13.711s6.137-13.711,13.711-13.711C190.148,96.184,196.285,102.324,196.285,109.895z"/>
			<circle clip-path="url(#SVGID_2_)" fill="#A3377A" cx="182.576" cy="109.895" r="12.947"/>
			<path clip-path="url(#SVGID_2_)" fill="#A4377A" d="M194.762,109.895c0,6.73-5.457,12.188-12.184,12.188
				c-6.734,0-12.188-5.457-12.188-12.188s5.453-12.188,12.188-12.188C189.305,97.707,194.762,103.164,194.762,109.895z"/>
			<path clip-path="url(#SVGID_2_)" fill="#A5377A" d="M194,109.895c0,6.309-5.113,11.426-11.422,11.426
				c-6.313,0-11.426-5.117-11.426-11.426s5.113-11.426,11.426-11.426C188.887,98.469,194,103.586,194,109.895z"/>
			<circle clip-path="url(#SVGID_2_)" fill="#A5377A" cx="182.576" cy="109.895" r="10.662"/>
			<circle clip-path="url(#SVGID_2_)" fill="#A6397B" cx="182.576" cy="109.895" r="9.9"/>
			<path clip-path="url(#SVGID_2_)" fill="#A7397B" d="M191.715,109.895c0,5.047-4.09,9.141-9.137,9.141
				c-5.051,0-9.141-4.094-9.141-9.141s4.09-9.141,9.141-9.141C187.625,100.754,191.715,104.848,191.715,109.895z"/>
			<circle clip-path="url(#SVGID_2_)" fill="#A8397B" cx="182.576" cy="109.895" r="8.377"/>
			<circle clip-path="url(#SVGID_2_)" fill="#A9377A" cx="182.576" cy="109.895" r="7.615"/>
			<path clip-path="url(#SVGID_2_)" fill="#A9377A" d="M189.43,109.895c0,3.785-3.066,6.855-6.852,6.855
				c-3.789,0-6.855-3.07-6.855-6.855s3.066-6.855,6.855-6.855C186.363,103.039,189.43,106.109,189.43,109.895z"/>
			<circle clip-path="url(#SVGID_2_)" fill="#AB377A" cx="182.578" cy="109.895" r="6.094"/>
			<path clip-path="url(#SVGID_2_)" fill="#AB377A" d="M187.906,109.895c0,2.945-2.387,5.332-5.328,5.332
				c-2.945,0-5.336-2.387-5.336-5.332s2.391-5.332,5.336-5.332C185.52,104.563,187.906,106.949,187.906,109.895z"/>
			<circle clip-path="url(#SVGID_2_)" fill="#AC397B" cx="182.578" cy="109.895" r="4.57"/>
			<path clip-path="url(#SVGID_2_)" fill="#AD397B" d="M186.383,109.895c0,2.102-1.703,3.809-3.805,3.809
				c-2.105,0-3.813-1.707-3.813-3.809s1.707-3.809,3.813-3.809C184.68,106.086,186.383,107.793,186.383,109.895z"/>
			<path clip-path="url(#SVGID_2_)" fill="#AE397B" d="M185.625,109.895c0,1.684-1.367,3.047-3.047,3.047
				c-1.684,0-3.047-1.363-3.047-3.047s1.363-3.047,3.047-3.047C184.258,106.848,185.625,108.211,185.625,109.895z"/>
			<path clip-path="url(#SVGID_2_)" fill="#AF397B" d="M184.859,109.895c0,1.262-1.023,2.285-2.281,2.285
				c-1.266,0-2.289-1.023-2.289-2.285s1.023-2.285,2.289-2.285C183.836,107.609,184.859,108.633,184.859,109.895z"/>
			<circle clip-path="url(#SVGID_2_)" fill="#B0397B" cx="182.578" cy="109.895" r="1.523"/>
			<path clip-path="url(#SVGID_2_)" fill="#B1397B" d="M183.336,109.895c0,0.422-0.34,0.762-0.758,0.762
				c-0.422,0-0.766-0.34-0.766-0.762s0.344-0.762,0.766-0.762C182.996,109.133,183.336,109.473,183.336,109.895z"/>
		</g>
	</g>
	<g>
		<g>
			<defs>
				<path id="SVGID_3_" d="M251.651,192.563c-3.025,1.815-6.199,3.43-9.511,4.789c-5.561,2.305-11.511,3.933-17.745,4.772
					c-4.704,0.641-9.378,0.79-13.931,0.522c-31.978-1.935-59.389-25.356-65.59-57.624c-0.016-0.018-0.016-0.051-0.016-0.066v-0.02
					c-0.016-0.032-0.016-0.047-0.016-0.083c0-0.017,0-0.017,0-0.032c-0.019-0.018-0.019-0.018-0.019-0.033v-0.053
					c-0.016-0.017-0.016-0.031-0.016-0.065c0-0.019-0.019-0.034-0.019-0.067c0,0,0,0,0-0.02c0-0.017,0-0.017,0-0.03v-0.018
					c-0.013-0.018-0.013-0.032-0.013-0.051c-0.021-0.033-0.021-0.067-0.021-0.101c-0.083-0.419-0.148-0.839-0.22-1.277
					c0.087,0.402,0.171,0.807,0.253,1.211v0.018c0,0.032,0.019,0.049,0.034,0.082c-0.016,0.034,0,0.067,0.019,0.101
					c0,0.018,0,0.049,0.016,0.065c-0.016,0.02,0,0.036,0.016,0.053c-0.016,0.016-0.016,0.016,0,0.034c0,0.017,0,0.049,0.016,0.065
					v0.018c0,0.016,0,0.016,0,0.035h0.019c-0.019,0.016-0.019,0.033,0,0.049c0,0.067,0.018,0.119,0.05,0.186
					c-0.016,0.02,0,0.05,0,0.067h0.018c5.058,21.913,26.065,36.769,48.801,33.692c19.325-2.621,34.029-17.375,37.426-35.575v-0.017
					c0.839-4.489,0.99-9.192,0.352-13.965h0.032c-1.359-10.084,2.99-19.611,10.554-25.327c3.614-2.737,7.948-4.602,12.756-5.259
					c0.856-0.114,1.713-0.201,2.571-0.217c13.845-0.555,26.113,9.511,27.997,23.526h0.05
					C289.433,151.008,275.266,178.329,251.651,192.563z"/>
			</defs>
			<clipPath id="SVGID_4_">
				<use xlink:href="#SVGID_3_"  overflow="visible"/>
			</clipPath>
			<rect x="144.539" y="97.871" clip-path="url(#SVGID_4_)" fill="#532B74" width="144.895" height="105.043"/>
			<path clip-path="url(#SVGID_4_)" fill="#532B74" d="M260.625,152.547c0,17.176-6.961,32.723-18.219,43.973
				c-5.625,5.629-12.324,10.184-19.766,13.328v-5.934h-48.414v5.934c-7.441-3.145-14.141-7.699-19.766-13.328
				c-5.629-5.625-10.184-12.324-13.328-19.766h2.406V128.34h-2.406c3.145-7.441,7.699-14.141,13.328-19.766
				c11.25-11.258,26.797-18.219,43.973-18.219C232.781,90.355,260.625,118.199,260.625,152.547z"/>
			<path clip-path="url(#SVGID_4_)" fill="#542B74" d="M259.75,152.547c0,16.934-6.867,32.262-17.961,43.355
				c-5.547,5.547-12.156,10.039-19.488,13.141v-5.129h-47.734v5.129c-7.332-3.102-13.941-7.594-19.488-13.141
				c-11.094-11.094-17.961-26.422-17.961-43.355c0-33.863,27.453-61.316,61.316-61.316S259.75,118.684,259.75,152.547z"/>
			<path clip-path="url(#SVGID_4_)" fill="#552C75" d="M258.871,152.547c0,16.691-6.762,31.801-17.699,42.738
				c-5.469,5.469-11.984,9.891-19.211,12.953v-4.324h-47.055v4.324c-7.227-3.063-13.742-7.484-19.211-12.953
				c-10.938-10.938-17.699-26.047-17.699-42.738c0-33.379,27.059-60.438,60.438-60.438S258.871,119.168,258.871,152.547z"/>
			<path clip-path="url(#SVGID_4_)" fill="#562C75" d="M257.996,152.547c0,16.449-6.668,31.34-17.445,42.117
				c-5.391,5.387-11.809,9.75-18.934,12.762v-3.512H175.25v3.512c-7.125-3.012-13.543-7.375-18.934-12.762
				c-10.777-10.777-17.445-25.668-17.445-42.117c0-32.895,26.668-59.563,59.563-59.563S257.996,119.652,257.996,152.547z"/>
			<path clip-path="url(#SVGID_4_)" fill="#562C76" d="M257.121,152.547c0,16.207-6.57,30.879-17.191,41.496
				c-5.309,5.313-11.633,9.609-18.652,12.578v-2.707H175.59v2.707c-7.02-2.969-13.344-7.266-18.652-12.578
				c-10.621-10.617-17.191-25.289-17.191-41.496c0-32.41,26.277-58.688,58.688-58.688S257.121,120.137,257.121,152.547z"/>
			<circle clip-path="url(#SVGID_4_)" fill="#582C76" cx="198.434" cy="152.547" r="57.809"/>
			<circle clip-path="url(#SVGID_4_)" fill="#592D76" cx="198.434" cy="152.547" r="56.934"/>
			<circle clip-path="url(#SVGID_4_)" fill="#592D76" cx="198.434" cy="152.547" r="56.059"/>
			<circle clip-path="url(#SVGID_4_)" fill="#5B2D76" cx="198.434" cy="152.547" r="55.184"/>
			<circle clip-path="url(#SVGID_4_)" fill="#5B2D76" cx="198.434" cy="152.547" r="54.309"/>
			<circle clip-path="url(#SVGID_4_)" fill="#5D2D76" cx="198.434" cy="152.547" r="53.43"/>
			<circle clip-path="url(#SVGID_4_)" fill="#5D2D77" cx="198.434" cy="152.547" r="52.555"/>
			<circle clip-path="url(#SVGID_4_)" fill="#5E2D77" cx="198.434" cy="152.547" r="51.68"/>
			<circle clip-path="url(#SVGID_4_)" fill="#5F2D77" cx="198.434" cy="152.547" r="50.801"/>
			<circle clip-path="url(#SVGID_4_)" fill="#602D76" cx="198.434" cy="152.547" r="49.926"/>
			<circle clip-path="url(#SVGID_4_)" fill="#612D76" cx="198.434" cy="152.547" r="49.051"/>
			<circle clip-path="url(#SVGID_4_)" fill="#622D76" cx="198.434" cy="152.547" r="48.176"/>
			<circle clip-path="url(#SVGID_4_)" fill="#632D76" cx="198.434" cy="152.547" r="47.301"/>
			<path clip-path="url(#SVGID_4_)" fill="#632D77" d="M244.859,152.547c0,25.637-20.789,46.426-46.426,46.426
				s-46.426-20.789-46.426-46.426s20.789-46.426,46.426-46.426S244.859,126.91,244.859,152.547z"/>
			<circle clip-path="url(#SVGID_4_)" fill="#652D77" cx="198.434" cy="152.547" r="45.547"/>
			<circle clip-path="url(#SVGID_4_)" fill="#652D77" cx="198.434" cy="152.547" r="44.672"/>
			<circle clip-path="url(#SVGID_4_)" fill="#662D77" cx="198.434" cy="152.547" r="43.797"/>
			<circle clip-path="url(#SVGID_4_)" fill="#672D77" cx="198.434" cy="152.547" r="42.918"/>
			<path clip-path="url(#SVGID_4_)" fill="#682D77" d="M240.477,152.547c0,23.223-18.82,42.043-42.043,42.043
				s-42.043-18.82-42.043-42.043s18.82-42.043,42.043-42.043S240.477,129.324,240.477,152.547z"/>
			<circle clip-path="url(#SVGID_4_)" fill="#692D77" cx="198.434" cy="152.547" r="41.168"/>
			<circle clip-path="url(#SVGID_4_)" fill="#6A2E78" cx="198.434" cy="152.547" r="40.293"/>
			<circle clip-path="url(#SVGID_4_)" fill="#6B2D78" cx="198.434" cy="152.547" r="39.418"/>
			<circle clip-path="url(#SVGID_4_)" fill="#6C2D78" cx="198.434" cy="152.547" r="38.539"/>
			<circle clip-path="url(#SVGID_4_)" fill="#6C2D78" cx="198.434" cy="152.547" r="37.664"/>
			<circle clip-path="url(#SVGID_4_)" fill="#6E2D78" cx="198.434" cy="152.547" r="36.789"/>
			<circle clip-path="url(#SVGID_4_)" fill="#6F2F78" cx="198.434" cy="152.547" r="35.914"/>
			<circle clip-path="url(#SVGID_4_)" fill="#702F78" cx="198.434" cy="152.547" r="35.035"/>
			<circle clip-path="url(#SVGID_4_)" fill="#702F79" cx="198.434" cy="152.547" r="34.16"/>
			<circle clip-path="url(#SVGID_4_)" fill="#722F78" cx="198.434" cy="152.547" r="33.285"/>
			<circle clip-path="url(#SVGID_4_)" fill="#722F78" cx="198.434" cy="152.547" r="32.41"/>
			<circle clip-path="url(#SVGID_4_)" fill="#742E78" cx="198.434" cy="152.547" r="31.535"/>
			<circle clip-path="url(#SVGID_4_)" fill="#742E78" cx="198.434" cy="152.547" r="30.656"/>
			<circle clip-path="url(#SVGID_4_)" fill="#763079" cx="198.434" cy="152.547" r="29.781"/>
			<circle clip-path="url(#SVGID_4_)" fill="#763079" cx="198.434" cy="152.547" r="28.906"/>
			<circle clip-path="url(#SVGID_4_)" fill="#77307A" cx="198.434" cy="152.547" r="28.027"/>
			<circle clip-path="url(#SVGID_4_)" fill="#78307A" cx="198.434" cy="152.547" r="27.152"/>
			<circle clip-path="url(#SVGID_4_)" fill="#793079" cx="198.434" cy="152.547" r="26.277"/>
			<circle clip-path="url(#SVGID_4_)" fill="#793079" cx="198.434" cy="152.547" r="25.402"/>
			<path clip-path="url(#SVGID_4_)" fill="#793079" d="M222.961,152.547c0,13.543-10.984,24.527-24.527,24.527
				s-24.527-10.984-24.527-24.527s10.984-24.527,24.527-24.527S222.961,139.004,222.961,152.547z"/>
			<circle clip-path="url(#SVGID_4_)" fill="#793079" cx="198.434" cy="152.547" r="23.648"/>
			<circle clip-path="url(#SVGID_4_)" fill="#7A3079" cx="198.434" cy="152.547" r="22.773"/>
			<circle clip-path="url(#SVGID_4_)" fill="#7B3079" cx="198.434" cy="152.547" r="21.898"/>
			<circle clip-path="url(#SVGID_4_)" fill="#7C3079" cx="198.434" cy="152.547" r="21.023"/>
			<circle clip-path="url(#SVGID_4_)" fill="#7D3079" cx="198.434" cy="152.547" r="20.145"/>
			<circle clip-path="url(#SVGID_4_)" fill="#7E3079" cx="198.434" cy="152.547" r="19.27"/>
			<circle clip-path="url(#SVGID_4_)" fill="#7E3079" cx="198.434" cy="152.547" r="18.395"/>
			<circle clip-path="url(#SVGID_4_)" fill="#803079" cx="198.434" cy="152.547" r="17.52"/>
			<circle clip-path="url(#SVGID_4_)" fill="#813079" cx="198.434" cy="152.547" r="16.645"/>
			<circle clip-path="url(#SVGID_4_)" fill="#813279" cx="198.434" cy="152.547" r="15.766"/>
			<circle clip-path="url(#SVGID_4_)" fill="#833279" cx="198.434" cy="152.547" r="14.891"/>
			<circle clip-path="url(#SVGID_4_)" fill="#833279" cx="198.434" cy="152.547" r="14.016"/>
			<circle clip-path="url(#SVGID_4_)" fill="#843279" cx="198.434" cy="152.547" r="13.137"/>
			<circle clip-path="url(#SVGID_4_)" fill="#853279" cx="198.434" cy="152.547" r="12.262"/>
			<circle clip-path="url(#SVGID_4_)" fill="#863279" cx="198.434" cy="152.547" r="11.387"/>
			<circle clip-path="url(#SVGID_4_)" fill="#873279" cx="198.434" cy="152.547" r="10.512"/>
			<circle clip-path="url(#SVGID_4_)" fill="#883379" cx="198.434" cy="152.547" r="9.637"/>
			<path clip-path="url(#SVGID_4_)" fill="#893379" d="M207.191,152.547c0,4.84-3.918,8.758-8.758,8.758s-8.758-3.918-8.758-8.758
				s3.918-8.758,8.758-8.758S207.191,147.707,207.191,152.547z"/>
			<circle clip-path="url(#SVGID_4_)" fill="#8A3379" cx="198.434" cy="152.547" r="7.883"/>
			<circle clip-path="url(#SVGID_4_)" fill="#8A3379" cx="198.434" cy="152.547" r="7.008"/>
			<circle clip-path="url(#SVGID_4_)" fill="#8B3379" cx="198.434" cy="152.547" r="6.133"/>
			<circle clip-path="url(#SVGID_4_)" fill="#8C3379" cx="198.434" cy="152.547" r="5.254"/>
			<circle clip-path="url(#SVGID_4_)" fill="#8D3379" cx="198.434" cy="152.547" r="4.379"/>
			<circle clip-path="url(#SVGID_4_)" fill="#8E3379" cx="198.434" cy="152.547" r="3.504"/>
			<circle clip-path="url(#SVGID_4_)" fill="#8F337A" cx="198.434" cy="152.547" r="2.629"/>
			<circle clip-path="url(#SVGID_4_)" fill="#90337A" cx="198.434" cy="152.547" r="1.754"/>
			<circle clip-path="url(#SVGID_4_)" fill="#91337A" cx="198.434" cy="152.547" r="0.875"/>
		</g>
	</g>
	<g>
		<g>
			<defs>
				<path id="SVGID_5_" d="M257.282,232.225l0.034,0.035c-16.637,20.28-42.147,29.02-66.312,25.208
					c-10.049-1.598-19.864-5.364-28.719-11.361c-1.799-1.226-3.578-2.539-5.293-3.948c-4.052-3.329-7.647-7.009-10.774-10.977
					c-19.524-24.703-20.7-60.045-1.594-86.176c0.015-0.033,0.033-0.049,0.05-0.068c0.017-0.016,0.017-0.032,0.034-0.032
					c0-0.015,0-0.015,0-0.015c0.015-0.017,0.033-0.036,0.033-0.036c0.016-0.017,0.016-0.032,0.036-0.05
					c0.013-0.035,0.031-0.051,0.047-0.068c0.019-0.017,0.019-0.031,0.019-0.031c0.016-0.018,0.031-0.034,0.031-0.034
					c0-0.019,0.016-0.019,0.016-0.019c0.019-0.032,0.036-0.068,0.053-0.085h0.016c0.018-0.031,0.036-0.063,0.07-0.097
					c0.15-0.204,0.3-0.421,0.485-0.624c-0.15,0.22-0.286,0.42-0.419,0.624c-0.019,0.015-0.019,0.015-0.035,0.015
					c0,0.019-0.018,0.051-0.031,0.068c-0.034,0.05-0.07,0.083-0.086,0.134c-0.034,0.018-0.034,0.032-0.053,0.049v0.018
					c-0.016,0.016-0.031,0.016-0.031,0.035c0,0.016-0.016,0.016-0.016,0.033c-0.019,0.016-0.019,0.016-0.019,0.032
					c0,0,0,0-0.016,0.02c-0.019,0-0.019,0.017-0.019,0.017c-0.013,0.015-0.033,0.031-0.033,0.047
					c-0.034,0.035-0.049,0.068-0.066,0.105c-0.017,0.014-0.033,0.048-0.052,0.063c-12.616,18.638-9.175,44.164,8.573,58.717
					c17.005,13.967,41.34,13.058,57.252-1.175c1.68-1.48,3.278-3.142,4.756-4.942l0.035,0.036
					c6.721-8.186,17.205-11.447,26.885-9.312c3.329,0.721,6.572,2.1,9.511,4.134c0.641,0.438,1.263,0.89,1.869,1.396
					C265.113,203.487,266.812,220.613,257.282,232.225z"/>
			</defs>
			<clipPath id="SVGID_6_">
				<use xlink:href="#SVGID_5_"  overflow="visible"/>
			</clipPath>
			<rect x="125.52" y="143.848" clip-path="url(#SVGID_6_)" fill="#462B74" width="141.293" height="117.43"/>
			<path clip-path="url(#SVGID_6_)" fill="#462B74" d="M256.332,188.934c0,41.328-33.504,74.832-74.832,74.832
				c-20.664,0-39.375-8.375-52.914-21.918c-3.387-3.387-6.453-7.094-9.141-11.074h5.074V147.09h-5.074
				c2.688-3.98,5.754-7.688,9.141-11.074v6.832h105.828v-6.832C247.957,149.559,256.332,168.27,256.332,188.934z"/>
			<path clip-path="url(#SVGID_6_)" fill="#472B74" d="M254.707,188.934c0,40.43-32.777,73.203-73.207,73.203
				c-20.219,0-38.52-8.191-51.766-21.441c-3.313-3.309-6.309-6.938-8.938-10.832h3.723v-81.859h-3.723
				c2.629-3.898,5.625-7.523,8.938-10.836v5.68h103.531v-5.68C246.512,150.414,254.707,168.715,254.707,188.934z"/>
			<path clip-path="url(#SVGID_6_)" fill="#482B73" d="M253.078,188.934c0,39.531-32.047,71.578-71.578,71.578
				c-19.766,0-37.664-8.012-50.617-20.965c-3.234-3.238-6.164-6.785-8.738-10.594h2.375V148.91h-2.375
				c2.574-3.809,5.504-7.355,8.738-10.594v4.531h101.23v-4.531C245.066,151.27,253.078,169.168,253.078,188.934z"/>
			<path clip-path="url(#SVGID_6_)" fill="#492B74" d="M251.453,188.934c0,38.633-31.32,69.953-69.953,69.953
				c-19.32,0-36.805-7.832-49.465-20.492c-3.168-3.164-6.027-6.633-8.543-10.352h1.027V149.82h-1.027
				c2.516-3.723,5.375-7.188,8.543-10.352v3.379h98.93v-3.379C243.625,152.129,251.453,169.613,251.453,188.934z"/>
			<path clip-path="url(#SVGID_6_)" fill="#4A2B74" d="M249.824,188.934c0,37.734-30.59,68.324-68.324,68.324
				c-18.867,0-35.949-7.648-48.313-20.012c-6.184-6.184-11.188-13.547-14.645-21.719h5.977v-53.191h-5.977
				c3.457-8.176,8.461-15.535,14.645-21.719v2.23h96.625v-2.23C242.18,152.98,249.824,170.066,249.824,188.934z"/>
			<path clip-path="url(#SVGID_6_)" fill="#4B2B74" d="M248.199,188.934c0,36.836-29.863,66.695-66.699,66.695
				c-18.422,0-35.094-7.465-47.164-19.535c-6.035-6.035-10.918-13.223-14.297-21.199h4.48v-51.926h-4.48
				c3.379-7.98,8.262-15.164,14.297-21.199v1.078h94.328v-1.078C240.734,153.84,248.199,170.512,248.199,188.934z"/>
			<path clip-path="url(#SVGID_6_)" fill="#4C2A74" d="M246.57,188.934c0,35.938-29.133,65.07-65.07,65.07
				c-17.969,0-34.238-7.281-46.016-19.059c-5.887-5.887-10.652-12.898-13.945-20.684h2.98v-50.66h-2.98
				c3.293-7.785,8.059-14.793,13.945-20.684c1.473-1.473,3.016-2.875,4.621-4.199v4.129h82.785v-4.129
				c1.609,1.324,3.148,2.727,4.621,4.199C239.289,154.695,246.57,170.965,246.57,188.934z"/>
			<path clip-path="url(#SVGID_6_)" fill="#4D2B74" d="M244.945,188.934c0,35.039-28.406,63.445-63.445,63.445
				s-63.445-28.406-63.445-63.445c0-17.523,7.102-33.383,18.582-44.867c2.871-2.867,6.012-5.465,9.387-7.746v6.527h70.949v-6.527
				c3.375,2.281,6.52,4.879,9.391,7.746C237.844,155.551,244.945,171.41,244.945,188.934z"/>
			<path clip-path="url(#SVGID_6_)" fill="#4E2A75" d="M243.32,188.934c0,34.141-27.68,61.816-61.82,61.816
				s-61.82-27.676-61.82-61.816c0-17.07,6.922-32.527,18.105-43.715c2.797-2.797,5.859-5.328,9.148-7.551v5.18h69.129v-5.18
				c3.289,2.223,6.352,4.754,9.148,7.551C236.398,156.406,243.32,171.863,243.32,188.934z"/>
			<path clip-path="url(#SVGID_6_)" fill="#4F2A75" d="M241.691,188.934c0,33.242-26.949,60.191-60.191,60.191
				s-60.195-26.949-60.195-60.191c0-16.625,6.738-31.672,17.633-42.563c2.723-2.727,5.703-5.188,8.906-7.352v3.828h67.309v-3.828
				c3.203,2.164,6.184,4.625,8.91,7.352C234.953,157.262,241.691,172.309,241.691,188.934z"/>
			<path clip-path="url(#SVGID_6_)" fill="#502A75" d="M240.063,188.934c0,32.344-26.219,58.563-58.563,58.563
				s-58.566-26.219-58.566-58.563c0-16.172,6.555-30.816,17.152-41.414c2.648-2.648,5.555-5.047,8.668-7.152v2.48h65.488v-2.48
				c3.117,2.105,6.02,4.504,8.668,7.152C233.508,158.117,240.063,172.762,240.063,188.934z"/>
			<path clip-path="url(#SVGID_6_)" fill="#512A75" d="M238.438,188.934c0,31.445-25.492,56.938-56.938,56.938
				s-56.938-25.492-56.938-56.938c0-15.727,6.371-29.961,16.676-40.266c5.152-5.148,11.285-9.32,18.098-12.203v6.383h44.328v-6.383
				c6.813,2.883,12.945,7.055,18.098,12.203C232.063,158.973,238.438,173.207,238.438,188.934z"/>
			<path clip-path="url(#SVGID_6_)" fill="#522A75" d="M236.813,188.934c0,30.547-24.766,55.309-55.313,55.309
				s-55.313-24.762-55.313-55.309c0-15.273,6.191-29.102,16.199-39.113c5.004-5.004,10.965-9.055,17.582-11.855v4.883h43.063v-4.883
				c6.617,2.801,12.574,6.852,17.578,11.855C230.617,159.832,236.813,173.66,236.813,188.934z"/>
			<path clip-path="url(#SVGID_6_)" fill="#532C76" d="M235.184,188.934c0,29.648-24.035,53.684-53.684,53.684
				s-53.688-24.035-53.688-53.684c0-14.828,6.012-28.25,15.727-37.961c4.855-4.859,10.641-8.789,17.063-11.508v3.383h41.797v-3.383
				c6.422,2.719,12.203,6.648,17.063,11.508C229.176,160.684,235.184,174.105,235.184,188.934z"/>
			<path clip-path="url(#SVGID_6_)" fill="#542C76" d="M233.559,188.934c0,28.75-23.309,52.055-52.059,52.055
				s-52.059-23.305-52.059-52.055c0-28.754,23.309-52.063,52.059-52.063S233.559,160.18,233.559,188.934z"/>
			<path clip-path="url(#SVGID_6_)" fill="#552C76" d="M231.93,188.934c0,27.852-22.578,50.43-50.43,50.43
				s-50.434-22.578-50.434-50.43c0-27.855,22.582-50.434,50.434-50.434S231.93,161.078,231.93,188.934z"/>
			<path clip-path="url(#SVGID_6_)" fill="#562C76" d="M230.305,188.934c0,26.953-21.852,48.805-48.805,48.805
				s-48.805-21.852-48.805-48.805c0-26.957,21.852-48.805,48.805-48.805S230.305,161.977,230.305,188.934z"/>
			<path clip-path="url(#SVGID_6_)" fill="#562C76" d="M228.676,188.934c0,26.055-21.121,47.176-47.176,47.176
				s-47.18-21.121-47.18-47.176c0-26.059,21.125-47.18,47.18-47.18S228.676,162.875,228.676,188.934z"/>
			<path clip-path="url(#SVGID_6_)" fill="#582C77" d="M227.051,188.934c0,25.156-20.395,45.547-45.551,45.547
				s-45.551-20.391-45.551-45.547c0-25.16,20.395-45.555,45.551-45.555S227.051,163.773,227.051,188.934z"/>
			<path clip-path="url(#SVGID_6_)" fill="#582C77" d="M225.422,188.934c0,24.258-19.664,43.922-43.922,43.922
				s-43.926-19.664-43.926-43.922c0-24.262,19.668-43.926,43.926-43.926S225.422,164.672,225.422,188.934z"/>
			<path clip-path="url(#SVGID_6_)" fill="#592C77" d="M223.797,188.934c0,23.359-18.938,42.297-42.297,42.297
				s-42.297-18.938-42.297-42.297c0-23.363,18.938-42.297,42.297-42.297S223.797,165.57,223.797,188.934z"/>
			<path clip-path="url(#SVGID_6_)" fill="#5A2C77" d="M222.172,188.934c0,22.461-18.211,40.668-40.672,40.668
				s-40.672-18.207-40.672-40.668c0-22.465,18.211-40.672,40.672-40.672S222.172,166.469,222.172,188.934z"/>
			<path clip-path="url(#SVGID_6_)" fill="#5B2C77" d="M220.543,188.934c0,21.563-17.48,39.043-39.043,39.043
				s-39.047-17.48-39.047-39.043c0-21.566,17.484-39.047,39.047-39.047S220.543,167.367,220.543,188.934z"/>
			<path clip-path="url(#SVGID_6_)" fill="#5D2D78" d="M218.914,188.934c0,20.664-16.75,37.414-37.414,37.414
				s-37.418-16.75-37.418-37.414c0-20.668,16.754-37.418,37.418-37.418S218.914,168.266,218.914,188.934z"/>
			<path clip-path="url(#SVGID_6_)" fill="#5E2D78" d="M217.289,188.934c0,19.766-16.023,35.789-35.789,35.789
				s-35.789-16.023-35.789-35.789c0-19.77,16.023-35.793,35.789-35.793S217.289,169.164,217.289,188.934z"/>
			<path clip-path="url(#SVGID_6_)" fill="#5F2D78" d="M215.664,188.934c0,18.867-15.297,34.16-34.164,34.16
				s-34.164-15.293-34.164-34.16c0-18.871,15.297-34.164,34.164-34.164S215.664,170.063,215.664,188.934z"/>
			<path clip-path="url(#SVGID_6_)" fill="#602D78" d="M214.035,188.934c0,17.969-14.566,32.535-32.535,32.535
				s-32.539-14.566-32.539-32.535c0-17.973,14.57-32.539,32.539-32.539S214.035,170.961,214.035,188.934z"/>
			<path clip-path="url(#SVGID_6_)" fill="#612D78" d="M212.406,188.934c0,17.07-13.836,30.906-30.906,30.906
				s-30.91-13.836-30.91-30.906c0-17.074,13.84-30.91,30.91-30.91S212.406,171.859,212.406,188.934z"/>
			<path clip-path="url(#SVGID_6_)" fill="#622D79" d="M210.781,188.934c0,16.172-13.109,29.281-29.281,29.281
				s-29.285-13.109-29.285-29.281c0-16.176,13.113-29.285,29.285-29.285S210.781,172.758,210.781,188.934z"/>
			<path clip-path="url(#SVGID_6_)" fill="#622D79" d="M209.156,188.934c0,15.273-12.383,27.656-27.656,27.656
				s-27.656-12.383-27.656-27.656c0-15.277,12.383-27.656,27.656-27.656S209.156,173.656,209.156,188.934z"/>
			<path clip-path="url(#SVGID_6_)" fill="#642D79" d="M207.527,188.934c0,14.375-11.652,26.027-26.027,26.027
				s-26.031-11.652-26.031-26.027s11.656-26.031,26.031-26.031S207.527,174.559,207.527,188.934z"/>
			<path clip-path="url(#SVGID_6_)" fill="#642D79" d="M205.902,188.934c0,13.477-10.926,24.398-24.402,24.398
				s-24.402-10.922-24.402-24.398s10.926-24.406,24.402-24.406S205.902,175.457,205.902,188.934z"/>
			<path clip-path="url(#SVGID_6_)" fill="#652D79" d="M204.273,188.934c0,12.578-10.195,22.773-22.773,22.773
				s-22.777-10.195-22.777-22.773s10.199-22.777,22.777-22.777S204.273,176.355,204.273,188.934z"/>
			<circle clip-path="url(#SVGID_6_)" fill="#662D79" cx="181.5" cy="188.934" r="21.148"/>
			<path clip-path="url(#SVGID_6_)" fill="#672D79" d="M201.02,188.934c0,10.781-8.738,19.52-19.52,19.52
				s-19.523-8.738-19.523-19.52s8.742-19.523,19.523-19.523S201.02,178.152,201.02,188.934z"/>
			<path clip-path="url(#SVGID_6_)" fill="#682D79" d="M199.395,188.934c0,9.883-8.012,17.891-17.895,17.891
				s-17.895-8.008-17.895-17.891s8.012-17.898,17.895-17.898S199.395,179.051,199.395,188.934z"/>
			<path clip-path="url(#SVGID_6_)" fill="#692D79" d="M197.766,188.934c0,8.984-7.281,16.266-16.266,16.266
				s-16.27-7.281-16.27-16.266s7.285-16.27,16.27-16.27S197.766,179.949,197.766,188.934z"/>
			<circle clip-path="url(#SVGID_6_)" fill="#6A2D79" cx="181.5" cy="188.934" r="14.641"/>
			<circle clip-path="url(#SVGID_6_)" fill="#6B2E7A" cx="181.5" cy="188.934" r="13.016"/>
			<path clip-path="url(#SVGID_6_)" fill="#6C2E7A" d="M192.887,188.934c0,6.289-5.098,11.387-11.387,11.387
				s-11.391-5.098-11.391-11.387s5.102-11.391,11.391-11.391S192.887,182.645,192.887,188.934z"/>
			<path clip-path="url(#SVGID_6_)" fill="#6D2E7A" d="M191.258,188.934c0,5.391-4.367,9.758-9.758,9.758s-9.762-4.367-9.762-9.758
				s4.371-9.762,9.762-9.762S191.258,183.543,191.258,188.934z"/>
			<circle clip-path="url(#SVGID_6_)" fill="#6E2E7A" cx="181.5" cy="188.934" r="8.133"/>
			<circle clip-path="url(#SVGID_6_)" fill="#6E2E7A" cx="181.5" cy="188.934" r="6.508"/>
			<path clip-path="url(#SVGID_6_)" fill="#6F2E7A" d="M186.379,188.934c0,2.695-2.184,4.879-4.879,4.879s-4.883-2.184-4.883-4.879
				s2.188-4.883,4.883-4.883S186.379,186.238,186.379,188.934z"/>
			<path clip-path="url(#SVGID_6_)" fill="#712E7A" d="M184.754,188.934c0,1.797-1.457,3.25-3.254,3.25s-3.254-1.453-3.254-3.25
				s1.457-3.258,3.254-3.258S184.754,187.137,184.754,188.934z"/>
			<path clip-path="url(#SVGID_6_)" fill="#712E7A" d="M183.125,188.934c0,0.898-0.727,1.625-1.625,1.625s-1.629-0.727-1.629-1.625
				s0.73-1.629,1.629-1.629S183.125,188.035,183.125,188.934z"/>
		</g>
	</g>
	<g>
		<g>
			<defs>
				<path id="SVGID_7_" d="M167.479,285.462l0.015,0.051c-29.055,3.914-56.38-10.25-70.61-33.861
					c-1.092-1.8-2.102-3.647-3.024-5.545c-3.246-6.672-5.514-13.965-6.557-21.712c-0.637-4.706-0.789-9.361-0.504-13.916
					c1.934-31.981,25.357-59.405,57.626-65.604c0.015-0.02,0.048-0.02,0.066-0.02h0.015c0.032-0.017,0.052-0.017,0.084-0.017h0.02
					c0.016-0.016,0.03-0.016,0.049-0.016c0.017,0,0.017,0,0.033,0c0.018-0.018,0.051-0.018,0.087-0.018
					c0.013,0,0.031-0.016,0.047-0.016c0,0,0.019,0,0.034,0c0,0,0.016,0,0.031,0h0.019c0.018-0.02,0.018-0.02,0.034-0.02
					c0.033,0,0.065-0.016,0.1-0.016c0.439-0.083,0.892-0.17,1.345-0.218c-0.438,0.084-0.854,0.169-1.275,0.269
					c-0.035-0.016-0.069,0-0.104,0.018c-0.032,0-0.065,0-0.1,0.016c-0.019,0-0.05,0-0.065,0.017c0,0,0,0-0.019,0c0,0,0,0-0.016,0.02
					c-0.019-0.02-0.031-0.02-0.052,0c-0.016,0-0.034,0-0.049,0.017h-0.018c0,0,0,0-0.017,0c0,0,0,0-0.017,0
					c-0.019,0-0.033,0-0.049,0.015c-0.071,0-0.118,0.017-0.185,0.052c-0.018-0.02-0.053-0.02-0.069,0
					c-21.914,5.058-36.771,26.079-33.693,48.815c2.604,19.328,17.375,34.034,35.557,37.409c4.488,0.859,9.192,0.993,13.981,0.355
					l0.016,0.05c11.717-1.598,22.709,4.556,27.814,14.52c1.378,2.669,2.336,5.63,2.757,8.788c0.116,0.874,0.201,1.73,0.218,2.573
					C191.576,271.313,181.511,283.579,167.479,285.462z"/>
			</defs>
			<clipPath id="SVGID_8_">
				<use xlink:href="#SVGID_7_"  overflow="visible"/>
			</clipPath>
			<rect x="86.516" y="144.535" clip-path="url(#SVGID_8_)" fill="#372A56" width="105.063" height="144.891"/>
			<path clip-path="url(#SVGID_8_)" fill="#372A56" d="M190.402,204.723c0,34.352-27.848,62.199-62.203,62.199
				c-17.176,0-32.727-6.961-43.98-18.215h1.297v-87.969h-1.297c11.254-11.258,26.805-18.219,43.98-18.219
				C162.555,142.52,190.402,170.371,190.402,204.723z"/>
			<path clip-path="url(#SVGID_8_)" fill="#382957" d="M188.883,204.723c0,33.516-27.168,60.684-60.684,60.684
				c-16.754,0-31.926-6.793-42.91-17.773h0.227v-85.82h-0.227c10.984-10.98,26.156-17.777,42.91-17.777
				C161.715,144.035,188.883,171.207,188.883,204.723z"/>
			<path clip-path="url(#SVGID_8_)" fill="#392958" d="M187.367,204.723c0,32.676-26.492,59.164-59.168,59.164
				c-16.34,0-31.129-6.621-41.836-17.328c-2.676-2.676-5.098-5.609-7.223-8.758h6.375v-66.16h-6.375
				c2.125-3.145,4.547-6.078,7.223-8.754c10.707-10.711,25.496-17.332,41.836-17.332
				C160.875,145.555,187.367,172.043,187.367,204.723z"/>
			<path clip-path="url(#SVGID_8_)" fill="#3A2959" d="M185.852,204.723c0,31.836-25.813,57.648-57.652,57.648
				c-15.918,0-30.332-6.453-40.762-16.883c-2.609-2.609-4.969-5.469-7.043-8.535h5.121v-64.465h-5.121
				c2.074-3.066,4.434-5.922,7.043-8.531c10.43-10.434,24.844-16.887,40.762-16.887C160.039,147.07,185.852,172.883,185.852,204.723
				z"/>
			<path clip-path="url(#SVGID_8_)" fill="#3A295A" d="M184.332,204.723c0,31-25.129,56.133-56.133,56.133
				c-15.5,0-29.535-6.281-39.691-16.441c-2.539-2.539-4.836-5.32-6.855-8.309h3.863v-62.77h-3.863
				c2.02-2.984,4.316-5.77,6.855-8.309c10.156-10.156,24.191-16.438,39.691-16.438C159.203,148.59,184.332,173.723,184.332,204.723z
				"/>
			<path clip-path="url(#SVGID_8_)" fill="#3C295A" d="M182.816,204.723c0,30.164-24.453,54.613-54.617,54.613
				c-15.082,0-28.734-6.113-38.617-15.996c-2.473-2.469-4.707-5.18-6.672-8.082h2.605v-61.07H82.91
				c1.965-2.906,4.199-5.613,6.672-8.086c9.883-9.883,23.535-15.996,38.617-15.996C158.363,150.105,182.816,174.559,182.816,204.723
				z"/>
			<path clip-path="url(#SVGID_8_)" fill="#3C295B" d="M181.297,204.723c0,29.324-23.773,53.098-53.098,53.098
				c-14.66,0-27.938-5.941-37.543-15.551c-4.805-4.805-8.695-10.527-11.383-16.879h6.242v-41.336h-6.242
				c2.688-6.355,6.578-12.074,11.383-16.879c9.605-9.609,22.883-15.555,37.543-15.555
				C157.523,151.621,181.297,175.395,181.297,204.723z"/>
			<path clip-path="url(#SVGID_8_)" fill="#3C2A5D" d="M179.781,204.723c0,28.484-23.094,51.578-51.582,51.578
				c-14.242,0-27.137-5.773-36.473-15.105c-4.668-4.668-8.445-10.227-11.055-16.395h4.844v-40.156h-4.844
				c2.609-6.172,6.387-11.727,11.055-16.398c9.336-9.332,22.23-15.105,36.473-15.105
				C156.688,153.141,179.781,176.234,179.781,204.723z"/>
			<path clip-path="url(#SVGID_8_)" fill="#3D2B5D" d="M178.266,204.723c0,27.648-22.414,50.063-50.066,50.063
				c-13.824,0-26.34-5.602-35.398-14.664c-4.531-4.531-8.199-9.922-10.73-15.914h3.445v-38.973H82.07
				c2.531-5.988,6.199-11.383,10.73-15.914c9.059-9.059,21.574-14.664,35.398-14.664
				C155.852,154.656,178.266,177.074,178.266,204.723z"/>
			<path clip-path="url(#SVGID_8_)" fill="#3F2A5E" d="M176.746,204.723c0,26.813-21.734,48.547-48.547,48.547
				c-26.809,0-48.547-21.734-48.547-48.547s21.738-48.547,48.547-48.547C155.012,156.176,176.746,177.91,176.746,204.723z"/>
			<circle clip-path="url(#SVGID_8_)" fill="#402A5F" cx="128.201" cy="204.723" r="47.029"/>
			<circle clip-path="url(#SVGID_8_)" fill="#402A60" cx="128.199" cy="204.723" r="45.512"/>
			<circle clip-path="url(#SVGID_8_)" fill="#412A61" cx="128.199" cy="204.723" r="43.996"/>
			<path clip-path="url(#SVGID_8_)" fill="#422A62" d="M170.68,204.723c0,23.461-19.02,42.477-42.48,42.477
				c-23.457,0-42.477-19.016-42.477-42.477s19.02-42.48,42.477-42.48C151.66,162.242,170.68,181.262,170.68,204.723z"/>
			<path clip-path="url(#SVGID_8_)" fill="#432A63" d="M169.164,204.723c0,22.621-18.34,40.961-40.965,40.961
				c-22.621,0-40.961-18.34-40.961-40.961c0-22.625,18.34-40.961,40.961-40.961C150.824,163.762,169.164,182.098,169.164,204.723z"
				/>
			<circle clip-path="url(#SVGID_8_)" fill="#442A63" cx="128.201" cy="204.723" r="39.443"/>
			<path clip-path="url(#SVGID_8_)" fill="#442A64" d="M166.129,204.723c0,20.945-16.98,37.926-37.93,37.926
				c-20.945,0-37.926-16.98-37.926-37.926c0-20.949,16.98-37.93,37.926-37.93C149.148,166.793,166.129,183.773,166.129,204.723z"/>
			<circle clip-path="url(#SVGID_8_)" fill="#452A65" cx="128.199" cy="204.723" r="36.41"/>
			<path clip-path="url(#SVGID_8_)" fill="#472A66" d="M163.094,204.723c0,19.27-15.621,34.891-34.895,34.891
				c-19.27,0-34.895-15.621-34.895-34.891c0-19.273,15.625-34.895,34.895-34.895C147.473,169.828,163.094,185.449,163.094,204.723z"
				/>
			<circle clip-path="url(#SVGID_8_)" fill="#472A67" cx="128.201" cy="204.723" r="33.377"/>
			<circle clip-path="url(#SVGID_8_)" fill="#492C69" cx="128.199" cy="204.723" r="31.859"/>
			<circle clip-path="url(#SVGID_8_)" fill="#492C6B" cx="128.201" cy="204.723" r="30.342"/>
			<circle clip-path="url(#SVGID_8_)" fill="#4A2C6B" cx="128.199" cy="204.723" r="28.824"/>
			<circle clip-path="url(#SVGID_8_)" fill="#4B2B6C" cx="128.199" cy="204.723" r="27.309"/>
			<path clip-path="url(#SVGID_8_)" fill="#4C2B6D" d="M153.992,204.723c0,14.242-11.547,25.789-25.793,25.789
				c-14.242,0-25.789-11.547-25.789-25.789c0-14.246,11.547-25.793,25.789-25.793C142.445,178.93,153.992,190.477,153.992,204.723z"
				/>
			<circle clip-path="url(#SVGID_8_)" fill="#4D2B6E" cx="128.199" cy="204.723" r="24.273"/>
			<circle clip-path="url(#SVGID_8_)" fill="#4D2B6E" cx="128.201" cy="204.723" r="22.756"/>
			<circle clip-path="url(#SVGID_8_)" fill="#4D2B6F" cx="128.199" cy="204.723" r="21.238"/>
			<circle clip-path="url(#SVGID_8_)" fill="#4E2B70" cx="128.199" cy="204.723" r="19.723"/>
			<circle clip-path="url(#SVGID_8_)" fill="#4F2B71" cx="128.201" cy="204.723" r="18.205"/>
			<circle clip-path="url(#SVGID_8_)" fill="#502B72" cx="128.201" cy="204.723" r="16.689"/>
			<circle clip-path="url(#SVGID_8_)" fill="#522B73" cx="128.201" cy="204.723" r="15.17"/>
			<path clip-path="url(#SVGID_8_)" fill="#522B73" d="M141.855,204.723c0,7.539-6.113,13.652-13.656,13.652
				c-7.539,0-13.652-6.113-13.652-13.652c0-7.543,6.113-13.656,13.652-13.656C135.742,191.066,141.855,197.18,141.855,204.723z"/>
			<circle clip-path="url(#SVGID_8_)" fill="#532B74" cx="128.199" cy="204.723" r="12.137"/>
			<path clip-path="url(#SVGID_8_)" fill="#542C75" d="M138.82,204.723c0,5.863-4.754,10.617-10.621,10.617
				c-5.863,0-10.621-4.754-10.621-10.617c0-5.867,4.758-10.621,10.621-10.621C134.066,194.102,138.82,198.855,138.82,204.723z"/>
			<circle clip-path="url(#SVGID_8_)" fill="#552C76" cx="128.201" cy="204.723" r="9.104"/>
			<circle clip-path="url(#SVGID_8_)" fill="#542C77" cx="128.199" cy="204.723" r="7.586"/>
			<circle clip-path="url(#SVGID_8_)" fill="#562D78" cx="128.201" cy="204.723" r="6.068"/>
			<circle clip-path="url(#SVGID_8_)" fill="#562D79" cx="128.199" cy="204.723" r="4.551"/>
			<circle clip-path="url(#SVGID_8_)" fill="#572D7A" cx="128.199" cy="204.723" r="3.035"/>
			<path clip-path="url(#SVGID_8_)" fill="#582D7A" d="M129.719,204.723c0,0.836-0.68,1.516-1.52,1.516
				c-0.836,0-1.516-0.68-1.516-1.516c0-0.84,0.68-1.52,1.516-1.52C129.039,203.203,129.719,203.883,129.719,204.723z"/>
		</g>
	</g>
	<g>
		<g>
			<defs>
				<path id="SVGID_9_" d="M145.58,145.513c-0.2-0.152-0.4-0.288-0.604-0.422h-0.018c-0.016-0.034-0.05-0.048-0.084-0.067
					c-0.031-0.033-0.065-0.066-0.117-0.086c-0.016-0.016-0.034-0.032-0.049-0.032c0,0,0-0.015-0.018-0.015c0,0,0,0-0.017,0
					c0,0,0,0-0.017,0v-0.017c-0.019-0.02-0.033-0.036-0.049-0.036h-0.02v-0.016c-0.017-0.018-0.032-0.018-0.052-0.033
					c0-0.02-0.015-0.02-0.032-0.035c-0.033-0.018-0.081-0.049-0.134-0.083c-0.017-0.019-0.032-0.034-0.066-0.034
					c-18.62-12.619-44.145-9.176-58.698,8.57c-13.965,17.006-13.041,41.355,1.191,57.271c1.478,1.681,3.123,3.26,4.926,4.739
					l-0.035,0.033c9.328,7.63,12.25,20.183,8.119,30.855c-0.741,1.916-1.734,3.78-2.925,5.545c-0.458,0.639-0.909,1.263-1.412,1.864
					c-9.513,11.596-26.653,13.295-38.264,3.767l-0.021,0.033c-20.3-16.633-29.039-42.148-25.205-66.315
					c1.914-12.097,6.959-23.861,15.293-34.012c0.889-1.092,1.813-2.151,2.772-3.178c2.553-2.791,5.312-5.309,8.199-7.594
					c24.722-19.525,60.045-20.707,86.16-1.597c0.032,0.017,0.05,0.032,0.065,0.032c0.033,0.035,0.051,0.053,0.065,0.053h0.02v0.015
					h0.016c0.017,0.017,0.017,0.017,0.017,0.017c0.02,0.018,0.035,0.033,0.05,0.053c0.019,0.016,0.035,0.016,0.052,0.033
					c0.018,0.016,0.032,0.032,0.051,0.032c0.016,0.02,0.016,0.02,0.016,0.02c0.021,0.017,0.033,0.017,0.033,0.017
					c0.034,0.031,0.053,0.047,0.068,0.047v0.02c0.031,0.016,0.067,0.033,0.1,0.066C145.159,145.175,145.38,145.324,145.58,145.513z"
					/>
			</defs>
			<clipPath id="SVGID_10_">
				<use xlink:href="#SVGID_9_"  overflow="visible"/>
			</clipPath>
			<rect x="28.148" y="125.512" clip-path="url(#SVGID_10_)" fill="#2A233F" width="117.43" height="141.297"/>
			<path clip-path="url(#SVGID_10_)" fill="#2A233F" d="M147.586,175.895c0,34.25-27.762,62.008-62.008,62.008
				S23.57,210.145,23.57,175.895c0-17.125,6.938-32.625,18.16-43.844c5.613-5.613,12.293-10.152,19.711-13.289v5.75h48.273v-5.75
				c7.418,3.137,14.098,7.676,19.711,13.289C140.648,143.27,147.586,158.77,147.586,175.895z"/>
			<path clip-path="url(#SVGID_10_)" fill="#2C2340" d="M146.617,175.895c0,33.711-27.328,61.039-61.039,61.039
				s-61.039-27.328-61.039-61.039c0-16.855,6.832-32.117,17.875-43.16c5.523-5.523,12.102-9.992,19.406-13.082v4.859h47.516v-4.859
				c7.305,3.09,13.883,7.559,19.406,13.082C139.785,143.777,146.617,159.039,146.617,175.895z"/>
			<path clip-path="url(#SVGID_10_)" fill="#2B2341" d="M145.648,175.895c0,33.18-26.895,60.07-60.07,60.07
				s-60.07-26.891-60.07-60.07c0-16.586,6.723-31.605,17.594-42.477c5.438-5.438,11.906-9.836,19.094-12.875v3.969h46.766v-3.969
				c7.188,3.039,13.656,7.438,19.094,12.875C138.926,144.289,145.648,159.309,145.648,175.895z"/>
			<path clip-path="url(#SVGID_10_)" fill="#2C2342" d="M144.68,175.895c0,32.641-26.461,59.102-59.102,59.102
				s-59.102-26.461-59.102-59.102c0-16.32,6.613-31.094,17.313-41.789c5.344-5.352,11.711-9.68,18.785-12.668v3.074h46.008v-3.074
				c7.074,2.988,13.441,7.316,18.785,12.668C138.066,144.801,144.68,159.574,144.68,175.895z"/>
			<path clip-path="url(#SVGID_10_)" fill="#2D2443" d="M143.711,175.895c0,32.109-26.027,58.133-58.133,58.133
				s-58.133-26.023-58.133-58.133c0-32.105,26.027-58.133,58.133-58.133S143.711,143.789,143.711,175.895z"/>
			<circle clip-path="url(#SVGID_10_)" fill="#2D2444" cx="85.578" cy="175.895" r="57.164"/>
			<path clip-path="url(#SVGID_10_)" fill="#2D2545" d="M141.773,175.895c0,31.039-25.16,56.195-56.195,56.195
				s-56.195-25.156-56.195-56.195c0-31.035,25.16-56.195,56.195-56.195S141.773,144.859,141.773,175.895z"/>
			<circle clip-path="url(#SVGID_10_)" fill="#2E2446" cx="85.578" cy="175.895" r="55.227"/>
			<path clip-path="url(#SVGID_10_)" fill="#2E2447" d="M139.836,175.895c0,29.969-24.293,54.258-54.258,54.258
				S31.32,205.863,31.32,175.895c0-29.965,24.293-54.258,54.258-54.258S139.836,145.93,139.836,175.895z"/>
			<circle clip-path="url(#SVGID_10_)" fill="#2F2448" cx="85.578" cy="175.895" r="53.289"/>
			<circle clip-path="url(#SVGID_10_)" fill="#302449" cx="85.578" cy="175.895" r="52.32"/>
			<circle clip-path="url(#SVGID_10_)" fill="#30244A" cx="85.578" cy="175.895" r="51.352"/>
			<circle clip-path="url(#SVGID_10_)" fill="#31254B" cx="85.578" cy="175.895" r="50.383"/>
			<circle clip-path="url(#SVGID_10_)" fill="#32254C" cx="85.578" cy="175.895" r="49.414"/>
			<circle clip-path="url(#SVGID_10_)" fill="#32254C" cx="85.578" cy="175.895" r="48.445"/>
			<circle clip-path="url(#SVGID_10_)" fill="#32254D" cx="85.578" cy="175.895" r="47.477"/>
			<circle clip-path="url(#SVGID_10_)" fill="#33264F" cx="85.578" cy="175.895" r="46.508"/>
			<circle clip-path="url(#SVGID_10_)" fill="#33254F" cx="85.578" cy="175.895" r="45.539"/>
			<circle clip-path="url(#SVGID_10_)" fill="#342651" cx="85.578" cy="175.895" r="44.57"/>
			<circle clip-path="url(#SVGID_10_)" fill="#352551" cx="85.578" cy="175.895" r="43.602"/>
			<circle clip-path="url(#SVGID_10_)" fill="#352652" cx="85.578" cy="175.895" r="42.633"/>
			<circle clip-path="url(#SVGID_10_)" fill="#362753" cx="85.578" cy="175.895" r="41.664"/>
			<circle clip-path="url(#SVGID_10_)" fill="#362654" cx="85.578" cy="175.895" r="40.695"/>
			<path clip-path="url(#SVGID_10_)" fill="#372655" d="M125.305,175.895c0,21.941-17.789,39.727-39.727,39.727
				s-39.727-17.785-39.727-39.727c0-21.938,17.789-39.723,39.727-39.723S125.305,153.957,125.305,175.895z"/>
			<path clip-path="url(#SVGID_10_)" fill="#372656" d="M124.336,175.895c0,21.406-17.352,38.758-38.758,38.758
				S46.82,197.301,46.82,175.895c0-21.402,17.352-38.754,38.758-38.754S124.336,154.492,124.336,175.895z"/>
			<path clip-path="url(#SVGID_10_)" fill="#382757" d="M123.367,175.895c0,20.871-16.922,37.789-37.789,37.789
				s-37.789-16.918-37.789-37.789c0-20.867,16.922-37.785,37.789-37.785S123.367,155.027,123.367,175.895z"/>
			<path clip-path="url(#SVGID_10_)" fill="#382658" d="M122.398,175.895c0,20.336-16.484,36.82-36.82,36.82
				s-36.82-16.484-36.82-36.82c0-20.332,16.484-36.816,36.82-36.816S122.398,155.563,122.398,175.895z"/>
			<path clip-path="url(#SVGID_10_)" fill="#392659" d="M121.426,175.895c0,19.801-16.051,35.852-35.848,35.852
				S49.73,195.695,49.73,175.895c0-19.797,16.051-35.848,35.848-35.848S121.426,156.098,121.426,175.895z"/>
			<path clip-path="url(#SVGID_10_)" fill="#3A285A" d="M120.457,175.895c0,19.266-15.613,34.883-34.879,34.883
				s-34.879-15.617-34.879-34.883c0-19.262,15.613-34.879,34.879-34.879S120.457,156.633,120.457,175.895z"/>
			<path clip-path="url(#SVGID_10_)" fill="#3A285B" d="M119.488,175.895c0,18.73-15.184,33.914-33.91,33.914
				s-33.91-15.184-33.91-33.914c0-18.727,15.184-33.91,33.91-33.91S119.488,157.168,119.488,175.895z"/>
			<path clip-path="url(#SVGID_10_)" fill="#3B275C" d="M118.52,175.895c0,18.195-14.746,32.945-32.941,32.945
				s-32.941-14.75-32.941-32.945c0-18.191,14.746-32.941,32.941-32.941S118.52,157.703,118.52,175.895z"/>
			<path clip-path="url(#SVGID_10_)" fill="#3A275C" d="M117.551,175.895c0,17.66-14.316,31.977-31.973,31.977
				s-31.973-14.316-31.973-31.977c0-17.656,14.316-31.973,31.973-31.973S117.551,158.238,117.551,175.895z"/>
			<path clip-path="url(#SVGID_10_)" fill="#3C275E" d="M116.582,175.895c0,17.125-13.879,31.008-31.004,31.008
				s-31.004-13.883-31.004-31.008c0-17.121,13.879-31.004,31.004-31.004S116.582,158.773,116.582,175.895z"/>
			<path clip-path="url(#SVGID_10_)" fill="#3C275F" d="M115.613,175.895c0,16.59-13.449,30.039-30.035,30.039
				s-30.035-13.449-30.035-30.039c0-16.586,13.449-30.035,30.035-30.035S115.613,159.309,115.613,175.895z"/>
			<circle clip-path="url(#SVGID_10_)" fill="#3C2760" cx="85.578" cy="175.895" r="29.066"/>
			<circle clip-path="url(#SVGID_10_)" fill="#3D2861" cx="85.578" cy="175.895" r="28.098"/>
			<circle clip-path="url(#SVGID_10_)" fill="#3E2861" cx="85.578" cy="175.895" r="27.129"/>
			<circle clip-path="url(#SVGID_10_)" fill="#3E2862" cx="85.578" cy="175.895" r="26.16"/>
			<circle clip-path="url(#SVGID_10_)" fill="#3E2863" cx="85.578" cy="175.895" r="25.191"/>
			<path clip-path="url(#SVGID_10_)" fill="#3F2965" d="M109.801,175.895c0,13.379-10.844,24.223-24.223,24.223
				s-24.223-10.844-24.223-24.223c0-13.375,10.844-24.223,24.223-24.223S109.801,162.52,109.801,175.895z"/>
			<circle clip-path="url(#SVGID_10_)" fill="#3F2966" cx="85.578" cy="175.895" r="23.254"/>
			<path clip-path="url(#SVGID_10_)" fill="#402967" d="M107.863,175.895c0,12.309-9.977,22.285-22.285,22.285
				s-22.285-9.977-22.285-22.285c0-12.305,9.977-22.281,22.285-22.281S107.863,163.59,107.863,175.895z"/>
			<circle clip-path="url(#SVGID_10_)" fill="#402968" cx="85.578" cy="175.895" r="21.316"/>
			<path clip-path="url(#SVGID_10_)" fill="#412968" d="M105.926,175.895c0,11.238-9.109,20.348-20.348,20.348
				s-20.348-9.109-20.348-20.348c0-11.234,9.109-20.344,20.348-20.344S105.926,164.66,105.926,175.895z"/>
			<circle clip-path="url(#SVGID_10_)" fill="#412969" cx="85.578" cy="175.895" r="19.379"/>
			<path clip-path="url(#SVGID_10_)" fill="#422B6B" d="M103.988,175.895c0,10.168-8.242,18.41-18.41,18.41
				s-18.41-8.242-18.41-18.41c0-10.164,8.242-18.406,18.41-18.406S103.988,165.73,103.988,175.895z"/>
			<circle clip-path="url(#SVGID_10_)" fill="#432A6B" cx="85.578" cy="175.895" r="17.441"/>
			<path clip-path="url(#SVGID_10_)" fill="#432A6C" d="M102.047,175.895c0,9.098-7.371,16.473-16.469,16.473
				s-16.469-7.375-16.469-16.473c0-9.094,7.371-16.469,16.469-16.469S102.047,166.801,102.047,175.895z"/>
			<circle clip-path="url(#SVGID_10_)" fill="#442A6D" cx="85.578" cy="175.895" r="15.5"/>
			<path clip-path="url(#SVGID_10_)" fill="#442A6E" d="M100.109,175.895c0,8.027-6.504,14.535-14.531,14.535
				s-14.531-6.508-14.531-14.535c0-8.023,6.504-14.531,14.531-14.531S100.109,167.871,100.109,175.895z"/>
			<circle clip-path="url(#SVGID_10_)" fill="#442A6F" cx="85.578" cy="175.895" r="13.563"/>
			<path clip-path="url(#SVGID_10_)" fill="#452A6F" d="M98.172,175.895c0,6.957-5.637,12.598-12.594,12.598
				s-12.594-5.641-12.594-12.598c0-6.953,5.637-12.594,12.594-12.594S98.172,168.941,98.172,175.895z"/>
			<circle clip-path="url(#SVGID_10_)" fill="#452B70" cx="85.578" cy="175.895" r="11.625"/>
			<path clip-path="url(#SVGID_10_)" fill="#452B71" d="M96.234,175.895c0,5.887-4.77,10.66-10.656,10.66
				s-10.656-4.773-10.656-10.66c0-5.883,4.77-10.656,10.656-10.656S96.234,170.012,96.234,175.895z"/>
			<circle clip-path="url(#SVGID_10_)" fill="#462B72" cx="85.578" cy="175.895" r="9.688"/>
			<circle clip-path="url(#SVGID_10_)" fill="#472B73" cx="85.578" cy="175.895" r="8.719"/>
			<circle clip-path="url(#SVGID_10_)" fill="#472B74" cx="85.578" cy="175.895" r="7.75"/>
			<circle clip-path="url(#SVGID_10_)" fill="#482B74" cx="85.578" cy="175.895" r="6.781"/>
			<circle clip-path="url(#SVGID_10_)" fill="#482B75" cx="85.578" cy="175.895" r="5.813"/>
			<circle clip-path="url(#SVGID_10_)" fill="#492A76" cx="85.578" cy="175.895" r="4.844"/>
			<circle clip-path="url(#SVGID_10_)" fill="#492C77" cx="85.578" cy="175.895" r="3.875"/>
			<circle clip-path="url(#SVGID_10_)" fill="#4A2A77" cx="85.578" cy="175.895" r="2.906"/>
			<circle clip-path="url(#SVGID_10_)" fill="#4A2B78" cx="85.578" cy="175.895" r="1.938"/>
			<circle clip-path="url(#SVGID_10_)" fill="#4B2B7A" cx="85.578" cy="175.895" r="0.969"/>
		</g>
	</g>
	<g>
		<g>
			<defs>
				<path id="SVGID_11_" d="M145.146,147.776c-0.138-0.904-0.303-1.797-0.507-2.671c0.019-0.032,0-0.063-0.015-0.1
					c0-0.033,0-0.068-0.016-0.101c0-0.031,0-0.051-0.02-0.067v-0.016c0-0.033,0-0.053-0.017-0.068c0-0.018,0-0.034,0-0.034h-0.016
					v-0.032c0-0.017,0-0.035-0.02-0.051h0.02c0-0.033-0.02-0.053-0.02-0.053c0-0.048-0.015-0.099-0.032-0.15
					c0-0.016,0-0.049-0.015-0.065c-5.06-21.915-26.084-36.802-48.818-33.727c-19.326,2.622-34.049,17.394-37.426,35.575
					c-0.856,4.486-0.988,9.191-0.352,13.981l-0.049,0.017c1.19,8.77-1.954,17.141-7.799,22.92
					c-4.049,4.034-9.412,6.823-15.512,7.647c-0.858,0.118-1.713,0.186-2.554,0.218c-13.863,0.59-26.115-9.492-28.014-23.527
					l-0.051,0.019c-3.916-29.055,10.254-56.397,33.864-70.63c3.846-2.319,7.945-4.303,12.266-5.864
					c4.756-1.75,9.762-2.993,14.99-3.698c4.704-0.638,9.36-0.79,13.93-0.506c32.015,1.951,59.406,25.379,65.605,57.641
					c0.017,0.019,0.017,0.052,0.017,0.07c0.02,0.015,0.02,0.05,0.02,0.063c0,0.017,0,0.017,0,0.036
					c0.016,0.017,0.016,0.017,0.016,0.033v0.051c0.015,0.032,0.015,0.066,0.015,0.102c0,0,0.019,0.016,0.019,0.033v0.068
					c0.017,0.015,0.017,0.031,0.017,0.047c0.017,0.035,0.017,0.068,0.017,0.105C144.859,145.947,145.009,146.854,145.146,147.776z"
					/>
			</defs>
			<clipPath id="SVGID_12_">
				<use xlink:href="#SVGID_11_"  overflow="visible"/>
			</clipPath>
			<rect y="86.508" clip-path="url(#SVGID_12_)" fill="#1B1931" width="145.148" height="105.082"/>
			<path clip-path="url(#SVGID_12_)" fill="#1B1931" d="M139.84,123.156c0,34.391-27.879,62.27-62.27,62.27
				s-62.27-27.879-62.27-62.27c0-17.195,6.969-32.762,18.238-44.031v6.383h88.063v-6.383
				C132.871,90.395,139.84,105.961,139.84,123.156z"/>
			<path clip-path="url(#SVGID_12_)" fill="#1D1932" d="M138.32,123.156c0,33.551-27.199,60.75-60.75,60.75
				s-60.75-27.199-60.75-60.75c0-16.777,6.801-31.965,17.793-42.957v5.309h85.914v-5.309
				C131.52,91.191,138.32,106.379,138.32,123.156z"/>
			<path clip-path="url(#SVGID_12_)" fill="#1D1A33" d="M136.801,123.156c0,32.715-26.52,59.23-59.23,59.23
				s-59.23-26.516-59.23-59.23c0-16.355,6.629-31.164,17.348-41.883v4.234h83.766v-4.234
				C130.172,91.992,136.801,106.801,136.801,123.156z"/>
			<path clip-path="url(#SVGID_12_)" fill="#1E1A34" d="M135.281,123.156c0,31.875-25.836,57.715-57.711,57.715
				s-57.711-25.84-57.711-57.715c0-15.934,6.457-30.363,16.902-40.809v3.16h81.617v-3.16
				C128.824,92.793,135.281,107.223,135.281,123.156z"/>
			<path clip-path="url(#SVGID_12_)" fill="#201B35" d="M133.766,123.156c0,31.035-25.16,56.195-56.195,56.195
				s-56.195-25.16-56.195-56.195c0-15.516,6.289-29.566,16.461-39.734v2.086h79.469v-2.086
				C127.477,93.59,133.766,107.641,133.766,123.156z"/>
			<path clip-path="url(#SVGID_12_)" fill="#211B36" d="M132.246,123.156c0,30.199-24.48,54.676-54.676,54.676
				s-54.676-24.477-54.676-54.676c0-15.098,6.121-28.766,16.016-38.66v1.012h77.32v-1.012
				C126.125,94.391,132.246,108.059,132.246,123.156z"/>
			<path clip-path="url(#SVGID_12_)" fill="#201C37" d="M130.727,123.156c0,29.359-23.797,53.156-53.156,53.156
				s-53.156-23.797-53.156-53.156c0-14.676,5.949-27.965,15.57-37.586c2.402-2.402,5.039-4.582,7.867-6.488v6.426h59.438v-6.426
				c2.828,1.906,5.465,4.086,7.867,6.488C124.777,95.191,130.727,108.48,130.727,123.156z"/>
			<path clip-path="url(#SVGID_12_)" fill="#221C38" d="M129.207,123.156c0,28.52-23.117,51.637-51.637,51.637
				s-51.637-23.117-51.637-51.637c0-14.258,5.777-27.168,15.121-36.512c2.336-2.336,4.898-4.453,7.645-6.305v5.168h57.742V80.34
				c2.746,1.852,5.309,3.969,7.645,6.305C123.43,95.988,129.207,108.898,129.207,123.156z"/>
			<path clip-path="url(#SVGID_12_)" fill="#221C39" d="M127.688,123.156c0,27.68-22.438,50.121-50.117,50.121
				s-50.117-22.441-50.117-50.121c0-13.84,5.609-26.371,14.68-35.438c2.266-2.27,4.75-4.316,7.414-6.121v3.91h56.047v-3.91
				c2.664,1.805,5.148,3.852,7.414,6.121C122.078,96.785,127.688,109.316,127.688,123.156z"/>
			<path clip-path="url(#SVGID_12_)" fill="#241E3A" d="M126.172,123.156c0,26.84-21.762,48.602-48.602,48.602
				s-48.602-21.762-48.602-48.602c0-13.418,5.441-25.57,14.234-34.363c2.203-2.203,4.609-4.188,7.195-5.938v2.652h54.344v-2.652
				c2.586,1.75,4.992,3.734,7.195,5.938C120.73,97.586,126.172,109.738,126.172,123.156z"/>
			<path clip-path="url(#SVGID_12_)" fill="#241D3B" d="M124.652,123.156c0,26.004-21.082,47.082-47.082,47.082
				s-47.082-21.078-47.082-47.082c0-13,5.27-24.77,13.789-33.293c4.262-4.258,9.332-7.703,14.965-10.086v5.73h36.656v-5.73
				c5.633,2.383,10.703,5.828,14.965,10.086C119.383,98.387,124.652,110.156,124.652,123.156z"/>
			<path clip-path="url(#SVGID_12_)" fill="#241E3C" d="M123.133,123.156c0,25.164-20.398,45.563-45.563,45.563
				s-45.563-20.398-45.563-45.563c0-12.582,5.102-23.973,13.344-32.215c4.125-4.125,9.031-7.461,14.484-9.766v4.332h35.469v-4.332
				c5.453,2.305,10.359,5.641,14.484,9.766C118.031,99.184,123.133,110.574,123.133,123.156z"/>
			<circle clip-path="url(#SVGID_12_)" fill="#261E3D" cx="77.57" cy="123.156" r="44.043"/>
			<path clip-path="url(#SVGID_12_)" fill="#251F3E" d="M120.094,123.156c0,23.488-19.039,42.527-42.523,42.527
				s-42.523-19.039-42.523-42.527c0-23.484,19.039-42.523,42.523-42.523S120.094,99.672,120.094,123.156z"/>
			<path clip-path="url(#SVGID_12_)" fill="#26203F" d="M118.578,123.156c0,22.648-18.359,41.008-41.008,41.008
				s-41.008-18.359-41.008-41.008c0-22.645,18.359-41.004,41.008-41.004S118.578,100.512,118.578,123.156z"/>
			<circle clip-path="url(#SVGID_12_)" fill="#281F40" cx="77.57" cy="123.156" r="39.488"/>
			<path clip-path="url(#SVGID_12_)" fill="#282141" d="M115.539,123.156c0,20.973-17,37.969-37.969,37.969
				s-37.969-16.996-37.969-37.969c0-20.969,17-37.969,37.969-37.969S115.539,102.188,115.539,123.156z"/>
			<circle clip-path="url(#SVGID_12_)" fill="#292142" cx="77.57" cy="123.156" r="36.449"/>
			<circle clip-path="url(#SVGID_12_)" fill="#292143" cx="77.57" cy="123.156" r="34.93"/>
			<circle clip-path="url(#SVGID_12_)" fill="#2B2244" cx="77.57" cy="123.156" r="33.414"/>
			<circle clip-path="url(#SVGID_12_)" fill="#2B2346" cx="77.57" cy="123.156" r="31.895"/>
			<circle clip-path="url(#SVGID_12_)" fill="#2C2247" cx="77.57" cy="123.156" r="30.375"/>
			<path clip-path="url(#SVGID_12_)" fill="#2C2247" d="M106.426,123.156c0,15.938-12.918,28.855-28.855,28.855
				s-28.855-12.918-28.855-28.855c0-15.934,12.918-28.855,28.855-28.855S106.426,107.223,106.426,123.156z"/>
			<circle clip-path="url(#SVGID_12_)" fill="#2D2349" cx="77.57" cy="123.156" r="27.336"/>
			<circle clip-path="url(#SVGID_12_)" fill="#2D234A" cx="77.57" cy="123.156" r="25.82"/>
			<path clip-path="url(#SVGID_12_)" fill="#2E244B" d="M101.871,123.156c0,13.422-10.879,24.301-24.301,24.301
				S53.27,136.578,53.27,123.156c0-13.418,10.879-24.301,24.301-24.301S101.871,109.738,101.871,123.156z"/>
			<circle clip-path="url(#SVGID_12_)" fill="#2F244C" cx="77.57" cy="123.156" r="22.781"/>
			<path clip-path="url(#SVGID_12_)" fill="#30244D" d="M98.832,123.156c0,11.746-9.52,21.262-21.262,21.262
				s-21.262-9.516-21.262-21.262c0-11.742,9.52-21.262,21.262-21.262S98.832,111.414,98.832,123.156z"/>
			<path clip-path="url(#SVGID_12_)" fill="#30254D" d="M97.313,123.156c0,10.906-8.836,19.746-19.742,19.746
				s-19.742-8.84-19.742-19.746c0-10.902,8.836-19.742,19.742-19.742S97.313,112.254,97.313,123.156z"/>
			<circle clip-path="url(#SVGID_12_)" fill="#31264F" cx="77.57" cy="123.156" r="18.227"/>
			<circle clip-path="url(#SVGID_12_)" fill="#322650" cx="77.57" cy="123.156" r="16.707"/>
			<circle clip-path="url(#SVGID_12_)" fill="#322651" cx="77.57" cy="123.156" r="15.188"/>
			<circle clip-path="url(#SVGID_12_)" fill="#332852" cx="77.57" cy="123.156" r="13.668"/>
			<path clip-path="url(#SVGID_12_)" fill="#342752" d="M89.719,123.156c0,6.711-5.438,12.152-12.148,12.152
				s-12.148-5.441-12.148-12.152c0-6.707,5.438-12.148,12.148-12.148S89.719,116.449,89.719,123.156z"/>
			<circle clip-path="url(#SVGID_12_)" fill="#352853" cx="77.57" cy="123.156" r="10.633"/>
			<circle clip-path="url(#SVGID_12_)" fill="#352954" cx="77.57" cy="123.156" r="9.113"/>
			<circle clip-path="url(#SVGID_12_)" fill="#362855" cx="77.57" cy="123.156" r="7.594"/>
			<circle clip-path="url(#SVGID_12_)" fill="#372A56" cx="77.57" cy="123.156" r="6.074"/>
			<circle clip-path="url(#SVGID_12_)" fill="#382957" cx="77.57" cy="123.156" r="4.555"/>
			<circle clip-path="url(#SVGID_12_)" fill="#382A58" cx="77.57" cy="123.156" r="3.039"/>
			<circle clip-path="url(#SVGID_12_)" fill="#392A59" cx="77.57" cy="123.156" r="1.52"/>
		</g>
	</g>
	<g>
		<g>
			<defs>
				<path id="SVGID_13_" d="M144.825,144.418c-0.016,0.034-0.034,0.053-0.047,0.067c-0.021,0.019-0.036,0.033-0.036,0.051h-0.019
					c0,0.018-0.015,0.031-0.015,0.048c-0.018,0.02-0.034,0.036-0.034,0.036c-0.017,0.032-0.035,0.051-0.05,0.067
					c-0.016,0.018-0.035,0.032-0.035,0.049c-0.017,0.018-0.017,0.018-0.017,0.018c-0.016,0.016-0.016,0.035-0.035,0.035
					c-0.015,0.033-0.032,0.049-0.032,0.065h-0.015c-0.019,0.036-0.034,0.067-0.066,0.103c-0.151,0.2-0.305,0.418-0.49,0.621
					c0.15-0.218,0.285-0.421,0.421-0.621c0.032-0.035,0.052-0.052,0.069-0.083c0.032-0.036,0.066-0.085,0.081-0.12
					c0.018-0.018,0.032-0.034,0.032-0.049h0.02v-0.018c0.016-0.017,0.016-0.035,0.032-0.051c0-0.017,0.02-0.017,0.02-0.033
					c0.016-0.02,0.016-0.02,0.016-0.036c0,0,0,0,0.015-0.014h0.019c0-0.018,0.017-0.035,0.017-0.05
					c0.034-0.033,0.067-0.086,0.083-0.119c0.021-0.017,0.033-0.034,0.033-0.049v-0.018c12.62-18.639,9.189-44.164-8.554-58.716
					c-17.022-13.965-41.356-13.059-57.27,1.19c-1.681,1.48-3.261,3.13-4.739,4.926l-0.031-0.033
					c-6.084,7.428-15.278,10.788-24.149,9.762c-4.302-0.487-8.521-1.998-12.266-4.586c-0.642-0.437-1.246-0.907-1.85-1.394
					c-11.611-9.53-13.309-26.654-3.782-38.265l-0.033-0.033c16.634-20.286,42.147-29.022,66.31-25.209
					c12.101,1.915,23.88,6.975,34.029,15.311c1.396,1.141,2.739,2.335,4.017,3.579c2.453,2.318,4.706,4.788,6.757,7.392
					C162.738,82.946,163.935,118.287,144.825,144.418z"/>
			</defs>
			<clipPath id="SVGID_14_">
				<use xlink:href="#SVGID_13_"  overflow="visible"/>
			</clipPath>
			<rect x="22.625" y="28.148" clip-path="url(#SVGID_14_)" fill="#171723" width="141.309" height="117.43"/>
			<path clip-path="url(#SVGID_14_)" fill="#171723" d="M164.934,87.781v24.02v10.48h6.496c-2.219,3.281-4.742,6.34-7.531,9.133
				c-11.168,11.168-26.594,18.074-43.633,18.074c-34.082,0-61.707-27.629-61.707-61.707c0-34.082,27.625-61.707,61.707-61.707
				c17.039,0,32.465,6.906,43.633,18.074c2.789,2.793,5.313,5.848,7.531,9.129h-6.496V87.781z"/>
			<path clip-path="url(#SVGID_14_)" fill="#181724" d="M164.934,87.781v23.215v10.133h4.793c-2.145,3.176-4.586,6.133-7.285,8.828
				c-10.793,10.797-25.707,17.473-42.176,17.473c-32.945,0-59.652-26.707-59.652-59.648c0-32.945,26.707-59.652,59.652-59.652
				c16.469,0,31.383,6.68,42.176,17.473c2.699,2.699,5.141,5.656,7.285,8.828h-4.793V87.781z"/>
			<path clip-path="url(#SVGID_14_)" fill="#181825" d="M164.934,87.781v22.418v9.781h3.086c-2.07,3.063-4.426,5.918-7.031,8.523
				c-10.422,10.422-24.82,16.867-40.723,16.867c-31.809,0-57.594-25.781-57.594-57.59s25.785-57.594,57.594-57.594
				c15.902,0,30.301,6.449,40.723,16.871c2.605,2.602,4.961,5.457,7.031,8.523h-3.086V87.781z"/>
			<path clip-path="url(#SVGID_14_)" fill="#191926" d="M164.934,87.781v21.613h6.504c-2.813,6.645-6.879,12.629-11.906,17.656
				c-10.047,10.047-23.93,16.266-39.266,16.266c-30.672,0-55.539-24.867-55.539-55.535c0-30.672,24.867-55.535,55.539-55.535
				c15.336,0,29.219,6.215,39.266,16.266c5.027,5.023,9.094,11.008,11.906,17.652h-6.504V87.781z"/>
			<path clip-path="url(#SVGID_14_)" fill="#1B1927" d="M164.934,87.781v20.816h4.605c-2.707,6.398-6.621,12.16-11.461,17
				c-9.68,9.676-23.047,15.66-37.813,15.66c-29.539,0-53.48-23.941-53.48-53.477s23.941-53.48,53.48-53.48
				c14.766,0,28.133,5.984,37.813,15.664c4.84,4.84,8.754,10.602,11.461,17h-4.605V87.781z"/>
			<path clip-path="url(#SVGID_14_)" fill="#1B1A28" d="M171.688,87.781c0,28.398-23.023,51.422-51.422,51.422
				c-28.402,0-51.422-23.023-51.422-51.422c0-28.402,23.02-51.422,51.422-51.422C148.664,36.359,171.688,59.379,171.688,87.781z"/>
			<path clip-path="url(#SVGID_14_)" fill="#1B192A" d="M169.629,87.781c0,27.262-22.102,49.363-49.363,49.363
				c-27.266,0-49.367-22.102-49.367-49.363c0-27.266,22.102-49.363,49.367-49.363C147.527,38.418,169.629,60.516,169.629,87.781z"/>
			<path clip-path="url(#SVGID_14_)" fill="#1C1B2B" d="M167.57,87.781c0,26.125-21.18,47.309-47.305,47.309
				c-26.129,0-47.309-21.184-47.309-47.309c0-26.129,21.18-47.309,47.309-47.309C146.391,40.473,167.57,61.652,167.57,87.781z"/>
			<path clip-path="url(#SVGID_14_)" fill="#1D1A2C" d="M165.516,87.781c0,24.988-20.262,45.25-45.25,45.25
				c-24.992,0-45.254-20.262-45.254-45.25c0-24.992,20.262-45.254,45.254-45.254C145.254,42.527,165.516,62.789,165.516,87.781z"/>
			<path clip-path="url(#SVGID_14_)" fill="#1E1B2D" d="M163.457,87.781c0,23.855-19.34,43.191-43.191,43.191
				c-23.859,0-43.195-19.336-43.195-43.191s19.336-43.195,43.195-43.195C144.117,44.586,163.457,63.926,163.457,87.781z"/>
			<path clip-path="url(#SVGID_14_)" fill="#1E1B2E" d="M161.402,87.781c0,22.719-18.418,41.137-41.137,41.137
				c-22.723,0-41.141-18.418-41.141-41.137c0-22.723,18.418-41.137,41.141-41.137C142.984,46.645,161.402,65.059,161.402,87.781z"/>
			<path clip-path="url(#SVGID_14_)" fill="#1F1D2F" d="M159.344,87.781c0,21.582-17.496,39.078-39.078,39.078
				c-21.586,0-39.082-17.496-39.082-39.078c0-21.586,17.496-39.082,39.082-39.082C141.848,48.699,159.344,66.195,159.344,87.781z"/>
			<circle clip-path="url(#SVGID_14_)" fill="#201C30" cx="120.266" cy="87.781" r="37.023"/>
			<path clip-path="url(#SVGID_14_)" fill="#1F1D31" d="M155.23,87.781c0,19.309-15.656,34.965-34.965,34.965
				c-19.313,0-34.969-15.656-34.969-34.965c0-19.313,15.656-34.969,34.969-34.969C139.574,52.813,155.23,68.469,155.23,87.781z"/>
			<path clip-path="url(#SVGID_14_)" fill="#201D32" d="M153.172,87.781c0,18.176-14.734,32.91-32.906,32.91
				c-18.18,0-32.914-14.734-32.914-32.91s14.734-32.91,32.914-32.91C138.438,54.871,153.172,69.605,153.172,87.781z"/>
			<path clip-path="url(#SVGID_14_)" fill="#221F33" d="M151.117,87.781c0,17.039-13.813,30.852-30.852,30.852
				c-17.043,0-30.855-13.813-30.855-30.852c0-17.043,13.813-30.855,30.855-30.855C137.305,56.926,151.117,70.738,151.117,87.781z"/>
			<path clip-path="url(#SVGID_14_)" fill="#221E34" d="M149.059,87.781c0,15.902-12.891,28.793-28.793,28.793
				c-15.906,0-28.797-12.891-28.797-28.793s12.891-28.797,28.797-28.797C136.168,58.984,149.059,71.879,149.059,87.781z"/>
			<circle clip-path="url(#SVGID_14_)" fill="#231F35" cx="120.264" cy="87.781" r="26.74"/>
			<path clip-path="url(#SVGID_14_)" fill="#252036" d="M144.945,87.781c0,13.629-11.051,24.684-24.68,24.684
				c-13.633,0-24.684-11.055-24.684-24.684c0-13.633,11.051-24.684,24.684-24.684C133.895,63.098,144.945,74.148,144.945,87.781z"/>
			<path clip-path="url(#SVGID_14_)" fill="#251F37" d="M142.891,87.781c0,12.496-10.133,22.625-22.625,22.625
				c-12.5,0-22.625-10.129-22.625-22.625s10.125-22.629,22.625-22.629C132.758,65.152,142.891,75.285,142.891,87.781z"/>
			<path clip-path="url(#SVGID_14_)" fill="#252138" d="M140.832,87.781c0,11.359-9.207,20.566-20.566,20.566
				s-20.57-9.207-20.57-20.566s9.211-20.57,20.57-20.57S140.832,76.422,140.832,87.781z"/>
			<path clip-path="url(#SVGID_14_)" fill="#262139" d="M138.773,87.781c0,10.223-8.285,18.512-18.508,18.512
				c-10.227,0-18.516-8.289-18.516-18.512s8.289-18.512,18.516-18.512C130.488,69.27,138.773,77.559,138.773,87.781z"/>
			<path clip-path="url(#SVGID_14_)" fill="#27213A" d="M136.719,87.781c0,9.086-7.367,16.453-16.453,16.453
				c-9.09,0-16.457-7.367-16.457-16.453c0-9.09,7.367-16.457,16.457-16.457C129.352,71.324,136.719,78.691,136.719,87.781z"/>
			<path clip-path="url(#SVGID_14_)" fill="#28223B" d="M134.664,87.781c0,7.949-6.449,14.398-14.398,14.398
				c-7.953,0-14.398-6.449-14.398-14.398c0-7.953,6.445-14.398,14.398-14.398C128.215,73.383,134.664,79.828,134.664,87.781z"/>
			<path clip-path="url(#SVGID_14_)" fill="#28223C" d="M132.605,87.781c0,6.816-5.527,12.34-12.34,12.34
				c-6.816,0-12.344-5.523-12.344-12.34s5.527-12.34,12.344-12.34C127.078,75.441,132.605,80.965,132.605,87.781z"/>
			<circle clip-path="url(#SVGID_14_)" fill="#2A223D" cx="120.264" cy="87.781" r="10.283"/>
			<path clip-path="url(#SVGID_14_)" fill="#29243E" d="M128.492,87.781c0,4.543-3.684,8.227-8.227,8.227
				c-4.547,0-8.23-3.684-8.23-8.227s3.684-8.23,8.23-8.23C124.809,79.551,128.492,83.238,128.492,87.781z"/>
			<path clip-path="url(#SVGID_14_)" fill="#2A233F" d="M126.434,87.781c0,3.406-2.762,6.168-6.168,6.168
				c-3.41,0-6.172-2.762-6.172-6.168c0-3.41,2.762-6.172,6.172-6.172C123.672,81.609,126.434,84.371,126.434,87.781z"/>
			<path clip-path="url(#SVGID_14_)" fill="#2B2540" d="M124.375,87.781c0,2.27-1.84,4.113-4.109,4.113
				c-2.273,0-4.117-1.844-4.117-4.113c0-2.273,1.844-4.113,4.117-4.113C122.535,83.668,124.375,85.508,124.375,87.781z"/>
			<path clip-path="url(#SVGID_14_)" fill="#2B2541" d="M122.32,87.781c0,1.137-0.922,2.055-2.055,2.055
				c-1.137,0-2.059-0.918-2.059-2.055s0.922-2.059,2.059-2.059C121.398,85.723,122.32,86.645,122.32,87.781z"/>
		</g>
	</g>
	<g>
		<g>
			<defs>
				<path id="SVGID_15_" d="M202.65,78.946c-1.932,32.014-25.36,59.403-57.621,65.607c-0.021,0.014-0.053,0.014-0.07,0.014h-0.016
					c-0.034,0.017-0.053,0.017-0.084,0.017c-0.016,0-0.016,0-0.034,0h-0.016l-0.019,0.02h-0.067
					c-0.015,0.017-0.032,0.017-0.049,0.017s-0.035,0.017-0.05,0.017c0,0-0.016,0-0.035,0c-0.017,0-0.017,0-0.032,0h-0.02
					c-0.015,0.016-0.032,0.016-0.065,0.016c-0.033,0.019-0.065,0.019-0.101,0.019c-0.438,0.083-0.905,0.167-1.361,0.234
					c0.438-0.083,0.875-0.169,1.295-0.269c0.034,0,0.066,0,0.102-0.017c0.05,0,0.084-0.017,0.131-0.036c0.02,0,0.052,0,0.071-0.017
					c0,0,0,0,0.016,0c0,0,0,0,0.015-0.014h0.035c0.017,0,0.034,0,0.049-0.018h0.019c0.016,0.018,0.036,0.018,0.049,0.018v-0.018
					c0.019,0,0.034,0,0.053-0.018c0.065,0,0.115-0.015,0.186-0.048c0.014,0.015,0.014,0.015,0.031,0.015
					c0.017,0,0.017,0,0.035-0.015c21.911-5.058,36.767-26.084,33.692-48.803c-2.622-19.328-17.376-34.029-35.559-37.426
					c-4.504-0.855-9.21-1.007-13.997-0.353v-0.049c-8.37,1.127-16.353-1.665-22.1-6.99c-4.488-4.134-7.597-9.797-8.486-16.316
					c-0.118-0.858-0.201-1.717-0.22-2.573c-0.553-13.848,9.513-26.112,23.527-27.995V3.914
					c29.056-3.915,56.381,10.251,70.612,33.863c2.473,4.081,4.538,8.454,6.152,13.073c1.598,4.502,2.739,9.26,3.41,14.182
					C202.769,69.74,202.92,74.393,202.65,78.946z"/>
			</defs>
			<clipPath id="SVGID_16_">
				<use xlink:href="#SVGID_15_"  overflow="visible"/>
			</clipPath>
			<rect x="97.875" clip-path="url(#SVGID_16_)" fill="#1F1B2D" width="105.047" height="144.906"/>
			<path clip-path="url(#SVGID_16_)" fill="#1F1B2D" d="M203.922,100.652v41.75v3.504h-67.578v3.707
				c-3.141-2.121-6.066-4.539-8.734-7.211c-10.688-10.684-17.297-25.445-17.297-41.75c0-32.609,26.438-59.043,59.047-59.043
				c8.148,0,15.918,1.652,22.98,4.641c3.531,1.496,6.887,3.32,10.027,5.441c1.57,1.063,3.09,2.195,4.547,3.398h-2.992V100.652z"/>
			<path clip-path="url(#SVGID_16_)" fill="#1F1B2F" d="M203.922,100.652v40.359h5.797c-2.586,2.586-5.414,4.922-8.449,6.969v-2.074
				h-63.824v2.074c-3.039-2.047-5.867-4.383-8.445-6.969c-10.328-10.328-16.719-24.598-16.719-40.359
				c0-31.523,25.555-57.074,57.078-57.074c15.758,0,30.027,6.387,40.359,16.715h-5.797V100.652z"/>
			<path clip-path="url(#SVGID_16_)" fill="#1F1C30" d="M203.922,100.652v38.969h4.402c-4.988,4.984-10.926,9.023-17.516,11.813
				v-5.527h-42.902v5.527c-6.594-2.789-12.531-6.828-17.516-11.813c-9.973-9.973-16.141-23.75-16.141-38.969
				c0-30.434,24.672-55.109,55.109-55.109c15.215,0,28.992,6.172,38.965,16.141h-4.402V100.652z"/>
			<path clip-path="url(#SVGID_16_)" fill="#201B31" d="M203.922,100.652v37.578h3.012c-4.809,4.805-10.535,8.695-16.895,11.387
				v-3.711h-41.367v3.711c-6.355-2.691-12.082-6.582-16.891-11.387c-9.617-9.617-15.563-22.902-15.563-37.578
				c0-29.348,23.789-53.141,53.141-53.141c14.672,0,27.957,5.949,37.574,15.566h-3.012V100.652z"/>
			<path clip-path="url(#SVGID_16_)" fill="#201C33" d="M203.922,100.652v36.188h1.617c-9.258,9.258-22.051,14.984-36.18,14.984
				c-28.266,0-51.172-22.91-51.172-51.172s22.906-51.172,51.172-51.172c14.129,0,26.922,5.727,36.18,14.988h-1.617V100.652z"/>
			<path clip-path="url(#SVGID_16_)" fill="#201C34" d="M203.922,100.652v34.793h0.227c-8.902,8.902-21.203,14.41-34.789,14.41
				c-27.176,0-49.203-22.027-49.203-49.203c0-27.172,22.027-49.203,49.203-49.203c13.586,0,25.887,5.508,34.789,14.414h-0.227
				V100.652z"/>
			<path clip-path="url(#SVGID_16_)" fill="#201C36" d="M203.922,100.652v18.387v8.023h4.605c-1.699,2.512-3.629,4.855-5.77,6.992
				c-8.547,8.547-20.355,13.832-33.398,13.832c-26.09,0-47.238-21.145-47.238-47.234c0-26.086,21.148-47.234,47.238-47.234
				c13.043,0,24.852,5.289,33.398,13.836c2.141,2.137,4.07,4.477,5.77,6.992h-4.605V100.652z"/>
			<path clip-path="url(#SVGID_16_)" fill="#201C37" d="M203.922,100.652v17.621v7.691h2.973c-1.629,2.406-3.48,4.648-5.527,6.695
				c-8.195,8.195-19.508,13.262-32.008,13.262c-25,0-45.27-20.27-45.27-45.27s20.27-45.266,45.27-45.266
				c12.5,0,23.813,5.066,32.008,13.258c2.047,2.047,3.898,4.289,5.527,6.699h-2.973V100.652z"/>
			<path clip-path="url(#SVGID_16_)" fill="#221C38" d="M203.922,100.652v16.852h5.332c-2.191,5.184-5.363,9.848-9.277,13.766
				c-7.836,7.836-18.664,12.684-30.617,12.684c-23.914,0-43.301-19.387-43.301-43.301s19.387-43.297,43.301-43.297
				c11.953,0,22.781,4.844,30.617,12.68c3.914,3.922,7.086,8.586,9.277,13.766h-5.332V100.652z"/>
			<path clip-path="url(#SVGID_16_)" fill="#211C3A" d="M210.688,100.652c0,22.828-18.504,41.332-41.328,41.332
				c-22.828,0-41.332-18.504-41.332-41.332c0-22.824,18.504-41.328,41.332-41.328C192.184,59.324,210.688,77.828,210.688,100.652z"
				/>
			<path clip-path="url(#SVGID_16_)" fill="#221B3B" d="M208.719,100.652c0,21.742-17.621,39.363-39.359,39.363
				c-21.742,0-39.367-17.621-39.367-39.363c0-21.738,17.625-39.363,39.367-39.363C191.098,61.289,208.719,78.914,208.719,100.652z"
				/>
			<path clip-path="url(#SVGID_16_)" fill="#211D3C" d="M206.75,100.652c0,20.652-16.742,37.395-37.391,37.395
				c-20.656,0-37.398-16.742-37.398-37.395s16.742-37.395,37.398-37.395C190.008,63.258,206.75,80,206.75,100.652z"/>
			<path clip-path="url(#SVGID_16_)" fill="#221D3D" d="M204.785,100.652c0,19.566-15.863,35.43-35.426,35.43
				c-19.566,0-35.43-15.863-35.43-35.43c0-19.563,15.863-35.426,35.43-35.426C188.922,65.227,204.785,81.09,204.785,100.652z"/>
			<path clip-path="url(#SVGID_16_)" fill="#211D3F" d="M202.816,100.652c0,18.48-14.98,33.461-33.457,33.461
				c-18.48,0-33.461-14.98-33.461-33.461c0-18.477,14.98-33.457,33.461-33.457C187.836,67.195,202.816,82.176,202.816,100.652z"/>
			<path clip-path="url(#SVGID_16_)" fill="#221D40" d="M200.848,100.652c0,17.391-14.098,31.492-31.488,31.492
				c-17.395,0-31.492-14.102-31.492-31.492s14.098-31.488,31.492-31.488C186.75,69.164,200.848,83.262,200.848,100.652z"/>
			<circle clip-path="url(#SVGID_16_)" fill="#221E41" cx="169.357" cy="100.652" r="29.521"/>
			<circle clip-path="url(#SVGID_16_)" fill="#221D42" cx="169.357" cy="100.652" r="27.553"/>
			<circle clip-path="url(#SVGID_16_)" fill="#221E43" cx="169.359" cy="100.652" r="25.586"/>
			<path clip-path="url(#SVGID_16_)" fill="#221D44" d="M192.977,100.652c0,13.047-10.574,23.617-23.617,23.617
				c-13.047,0-23.621-10.57-23.621-23.617c0-13.043,10.574-23.617,23.621-23.617C182.402,77.035,192.977,87.609,192.977,100.652z"/>
			<path clip-path="url(#SVGID_16_)" fill="#221E45" d="M191.008,100.652c0,11.957-9.695,21.648-21.648,21.648
				c-11.961,0-21.652-9.691-21.652-21.648s9.691-21.648,21.652-21.648C181.313,79.004,191.008,88.695,191.008,100.652z"/>
			<path clip-path="url(#SVGID_16_)" fill="#231D46" d="M189.039,100.652c0,10.871-8.813,19.684-19.68,19.684
				c-10.871,0-19.684-8.813-19.684-19.684c0-10.867,8.813-19.68,19.684-19.68C180.227,80.973,189.039,89.785,189.039,100.652z"/>
			<circle clip-path="url(#SVGID_16_)" fill="#221F47" cx="169.357" cy="100.652" r="17.713"/>
			<path clip-path="url(#SVGID_16_)" fill="#231F47" d="M185.102,100.652c0,8.695-7.047,15.746-15.742,15.746
				c-8.699,0-15.746-7.051-15.746-15.746s7.047-15.742,15.746-15.742C178.055,84.91,185.102,91.957,185.102,100.652z"/>
			<path clip-path="url(#SVGID_16_)" fill="#241E48" d="M183.133,100.652c0,7.609-6.168,13.777-13.773,13.777
				c-7.609,0-13.781-6.168-13.781-13.777s6.172-13.777,13.781-13.777C176.965,86.875,183.133,93.043,183.133,100.652z"/>
			<path clip-path="url(#SVGID_16_)" fill="#231F49" d="M181.164,100.652c0,6.523-5.285,11.809-11.805,11.809
				c-6.523,0-11.813-5.285-11.813-11.809c0-6.52,5.289-11.809,11.813-11.809C175.879,88.844,181.164,94.133,181.164,100.652z"/>
			<path clip-path="url(#SVGID_16_)" fill="#231F49" d="M179.199,100.652c0,5.438-4.406,9.844-9.84,9.844
				c-5.438,0-9.844-4.406-9.844-9.844c0-5.434,4.406-9.84,9.844-9.84C174.793,90.813,179.199,95.219,179.199,100.652z"/>
			<path clip-path="url(#SVGID_16_)" fill="#231F4A" d="M177.23,100.652c0,4.348-3.527,7.875-7.871,7.875
				c-4.352,0-7.875-3.527-7.875-7.875s3.523-7.871,7.875-7.871C173.703,92.781,177.23,96.305,177.23,100.652z"/>
			<path clip-path="url(#SVGID_16_)" fill="#231F4A" d="M175.262,100.652c0,3.262-2.645,5.906-5.902,5.906
				c-3.262,0-5.906-2.645-5.906-5.906c0-3.258,2.645-5.902,5.906-5.902C172.617,94.75,175.262,97.395,175.262,100.652z"/>
			<circle clip-path="url(#SVGID_16_)" fill="#241E4B" cx="169.357" cy="100.652" r="3.936"/>
			<path clip-path="url(#SVGID_16_)" fill="#241E4B" d="M171.324,100.652c0,1.086-0.879,1.969-1.965,1.969
				c-1.09,0-1.969-0.883-1.969-1.969s0.879-1.969,1.969-1.969C170.445,98.684,171.324,99.566,171.324,100.652z"/>
		</g>
	</g>
</g>
</svg>
